<?xml version="1.0" encoding="utf-8" ?>
<svg baseProfile="full" height="100%" version="1.1" viewBox="0,0,1000,240" width="100%" xmlns="http://www.w3.org/2000/svg" xmlns:ev="http://www.w3.org/2001/xml-events" xmlns:xlink="http://www.w3.org/1999/xlink"><defs /><rect fill="white" height="240" width="1000" x="0" y="0" /><path d="M0,0 M429.96148681640625,49.80996322631836 L429.7953796386719,50.075008392333984 L429.5858459472656,50.46076965332031 L429.35107421875,50.92788314819336 L429.13470458984375,51.43108367919922 L428.8779296875,52.01228713989258 L428.5315246582031,52.69581985473633 L428.11358642578125,53.49204635620117 L427.7150573730469,54.32502746582031 L427.3935546875,55.13931655883789 L427.1759033203125,55.881202697753906 L427.0403137207031,56.49684524536133 L426.9537658691406,56.966217041015625 L426.8914489746094,57.30698013305664 L426.91094970703125,57.48066329956055 L427.08770751953125,57.4709587097168 L427.43603515625,57.24586868286133 L427.8251037597656,56.93862533569336 L428.13690185546875,56.671958923339844 M457.169921875,64.25074005126953 L457.3870544433594,63.75469970703125 L457.9005126953125,62.71824264526367 L458.7965087890625,61.062591552734375 L460.05206298828125,58.90272521972656 L461.5662841796875,56.400997161865234 L463.19464111328125,53.828025817871094 L464.7815246582031,51.48030471801758 L466.17681884765625,49.585758209228516 L467.2980041503906,48.26980972290039 L468.11041259765625,47.52859878540039 L468.6614074707031,47.29591369628906 L469.05816650390625,47.53903579711914 L469.3917541503906,48.25899887084961 L469.6939697265625,49.45090103149414 L469.9513244628906,51.089229583740234 L470.14373779296875,53.079132080078125 L470.2846374511719,55.26539993286133 L470.4178771972656,57.47902297973633 L470.57769775390625,59.52754592895508 L470.7604675292969,61.241363525390625 L470.91998291015625,62.52790069580078 L471.0389404296875,63.39076614379883 L471.1028137207031,63.8665657043457 L471.1257629394531,64.07249450683594 M461.0896301269531,56.87260055541992 L461.15228271484375,56.82863998413086 L461.518310546875,56.742942810058594 L462.3740234375,56.62238693237305 L463.87689208984375,56.51667404174805 L465.9199523925781,56.46994400024414 L468.24664306640625,56.50978088378906 L470.2070007324219,56.597808837890625 L471.4573669433594,56.68289566040039 M476.6323547363281,56.9639778137207 L476.7108154296875,56.89204788208008 L476.7518005371094,56.936527252197266 L476.69219970703125,57.24815368652344 L476.4701843261719,57.95983123779297 L476.13897705078125,59.05517578125 L475.7932434082031,60.38461685180664 L475.5054016113281,61.704612731933594 L475.30841064453125,62.82746124267578 L475.19683837890625,63.63243103027344 L475.1201477050781,64.0859146118164 L475.07183837890625,64.20299530029297 L475.11004638671875,63.9519157409668 L475.33642578125,63.22581481933594 L475.8616027832031,61.995391845703125 L476.7469482421875,60.36494064331055 L477.9756164550781,58.56925964355469 L479.4394226074219,56.932411193847656 L481.00177001953125,55.717647552490234 L482.5041198730469,55.03781509399414 L483.801025390625,54.932334899902344 L484.74322509765625,55.371849060058594 L485.22210693359375,56.295623779296875 L485.17755126953125,57.596839904785156 L484.72613525390625,59.1431770324707 L484.106689453125,60.7352180480957 L483.6162109375,62.203887939453125 L483.3683776855469,63.28179168701172 L483.3331298828125,63.898597717285156 M495.05517578125,58.39521026611328 L495.004150390625,57.9977912902832 L494.83306884765625,57.41972732543945 L494.4667663574219,56.80146408081055 L493.8443908691406,56.37744903564453 L492.92193603515625,56.25050354003906 L491.7237243652344,56.53777313232422 L490.3654479980469,57.306915283203125 L489.0101318359375,58.5308837890625 L487.87200927734375,60.064273834228516 L487.1278381347656,61.67695999145508 L486.86212158203125,63.123130798339844 L487.05645751953125,64.22647857666016 L487.646240234375,64.88371276855469 L488.5594482421875,65.0263900756836 L489.750732421875,64.61382293701172 L491.174072265625,63.622962951660156 L492.781494140625,62.0622673034668 L494.47247314453125,59.9997673034668 L496.15155029296875,57.59199905395508 L497.7222900390625,55.06888198852539 L499.11468505859375,52.712947845458984 L500.25396728515625,50.753726959228516 L501.1076965332031,49.2987060546875 L501.6546325683594,48.37276840209961 L501.89422607421875,47.978271484375 L501.8279113769531,48.13688278198242 L501.4501953125,48.922760009765625 L500.7577819824219,50.36651611328125 L499.8157043457031,52.3698844909668 L498.77667236328125,54.76087951660156 L497.8099060058594,57.30201721191406 L497.1375732421875,59.7452392578125 L496.8746643066406,61.862335205078125 L497.0303955078125,63.491477966308594 L497.3722229003906,64.50729370117188 L497.6997375488281,64.98696899414062 M520.19873046875,47.1565055847168 L520.0609741210938,47.20343780517578 L519.8115234375,47.465362548828125 L519.4529418945312,48.08570098876953 L519.0350952148438,49.14020538330078 L518.5899658203125,50.56642532348633 L518.1376953125,52.25347900390625 L517.6575317382812,54.10101318359375 L517.1448974609375,56.06891632080078 L516.5867919921875,58.12611389160156 L516.0206298828125,60.23073959350586 L515.5006103515625,62.28426742553711 L515.0884399414062,64.1462631225586 L514.8225708007812,65.67151641845703 L514.7316284179688,66.78009033203125 L514.7490844726562,67.43144989013672 L514.8131713867188,67.71678924560547 M521.714599609375,45.0 L521.7111206054688,45.035919189453125 L521.6949462890625,45.285545349121094 L521.6356811523438,45.86500549316406 L521.4991455078125,46.83006286621094 L521.2638549804688,48.033836364746094 L520.9730224609375,49.306396484375 L520.7139282226562,50.314422607421875 L520.5501708984375,50.92334747314453 M530.5472412109375,59.78770065307617 L530.4610595703125,59.25935745239258 L530.2369995117188,58.405460357666016 L529.799560546875,57.3576774597168 L529.1194458007812,56.39295959472656 L528.2120361328125,55.66197967529297 L527.1450805664062,55.281856536865234 L526.01513671875,55.327667236328125 L524.917236328125,55.85272979736328 L523.9252319335938,56.84553527832031 L523.1031494140625,58.218849182128906 L522.5145874023438,59.79640579223633 L522.22216796875,61.35665512084961 L522.2764282226562,62.699012756347656 L522.6989135742188,63.67406463623047 L523.475830078125,64.18304443359375 L524.548828125,64.1472396850586 L525.8595581054688,63.49127960205078 L527.3482666015625,62.17770767211914 L528.9658813476562,60.261131286621094 L530.6303100585938,57.90320587158203 L532.2373657226562,55.35505294799805 L533.6317749023438,52.892539978027344 L534.7266845703125,50.77015686035156 L535.47119140625,49.14516830444336 L535.8729248046875,48.115806579589844 L535.9686279296875,47.74030685424805 L535.79736328125,48.0546989440918 L535.34423828125,49.06865310668945 L534.6755981445312,50.75871276855469 L533.8502197265625,52.95030975341797 L532.9536743164062,55.39463424682617 L532.1412353515625,57.85097885131836 L531.5387573242188,60.075626373291016 L531.2078857421875,61.90734100341797 L531.1134033203125,63.16444778442383 L531.1475219726562,63.836463928222656 M555.177978515625,48.73898696899414 L554.855712890625,49.597564697265625 L554.281494140625,51.10048294067383 L553.4848022460938,53.130287170410156 L552.5908203125,55.34147644042969 L551.6992797851562,57.56898880004883 L550.9244995117188,59.673240661621094 L550.3538818359375,61.55654525756836 L550.07275390625,63.118385314941406 L550.1160888671875,64.24781799316406 L550.4727783203125,64.86241912841797 L551.133056640625,64.93814849853516 L552.0612182617188,64.47001647949219 L553.22900390625,63.50067138671875 L554.5836181640625,62.145164489746094 L556.0359497070312,60.562538146972656 L557.4299926757812,58.96327590942383 L558.6152954101562,57.5505485534668 L559.4841918945312,56.46084213256836 L560.0226440429688,55.773956298828125 L560.2498779296875,55.546302795410156 L560.2333984375,55.819923400878906 L559.9772338867188,56.624019622802734 L559.48876953125,57.91078186035156 L558.8299560546875,59.5301513671875 L558.1376342773438,61.24723815917969 L557.54443359375,62.83549499511719 L557.179443359375,64.12503814697266 L557.066162109375,64.90945434570312 L557.1546630859375,65.07002258300781 L557.3621826171875,64.58766174316406 L557.5758056640625,63.84068298339844 L557.720947265625,63.18131637573242 M561.6220092773438,48.72580337524414 L561.6491088867188,48.49475860595703 L561.6983642578125,48.227596282958984 L561.75146484375,48.032936096191406 L561.8017578125,48.00495147705078 L561.85205078125,48.08391571044922 L561.9149169921875,48.18772888183594 L561.9768676757812,48.247135162353516 L562.030517578125,48.26600646972656 M568.9356689453125,48.32012939453125 L568.7918090820312,48.605159759521484 L568.42822265625,49.279937744140625 L567.7952880859375,50.42977523803711 L566.9420166015625,51.98543167114258 L566.008056640625,53.80255126953125 L565.1354370117188,55.70155715942383 L564.4024658203125,57.53133773803711 L563.8416137695312,59.16163635253906 L563.4291381835938,60.48982620239258 L563.1343994140625,61.45779800415039 L562.9641723632812,62.063411712646484 L562.9169921875,62.303955078125 L562.9955444335938,62.15841293334961 L563.258544921875,61.56582260131836 L563.759033203125,60.48711395263672 L564.5530395507812,59.0031852722168 L565.6683349609375,57.30440902709961 L567.052001953125,55.61335754394531 L568.5819702148438,54.139827728271484 L570.1036987304688,53.01648712158203 L571.4489135742188,52.29016876220703 L572.4918212890625,51.9472770690918 L573.1480102539062,51.93198013305664 L573.373291015625,52.1794548034668 L573.139404296875,52.65630340576172 L572.4305419921875,53.33152770996094 L571.280517578125,54.16712951660156 L569.8013305664062,55.08738708496094 L568.176513671875,55.99885177612305 L566.651611328125,56.829559326171875 L565.4375610351562,57.54532241821289 L564.65966796875,58.14208984375 L564.3472900390625,58.65010070800781 L564.450439453125,59.0965690612793 L564.8958740234375,59.49363327026367 L565.6429443359375,59.84002685546875 L566.6661987304688,60.11484909057617 L567.9429321289062,60.29501724243164 L569.4429321289062,60.35874938964844 L571.1187133789062,60.27317810058594 L572.9241333007812,59.99296951293945 L574.80078125,59.47279357910156 L576.666748046875,58.7053108215332 L578.4002685546875,57.7293701171875 L579.8489990234375,56.62661361694336 L580.8773193359375,55.501220703125 L581.4158325195312,54.44550323486328 L581.439453125,53.541255950927734 L580.980712890625,52.88679504394531 L580.1123657226562,52.582523345947266 L578.8984985351562,52.70575714111328 L577.453369140625,53.299522399902344 L575.9453125,54.32585525512695 L574.5578002929688,55.68428421020508 L573.4991455078125,57.227535247802734 L572.9822998046875,58.8010139465332 L573.1759033203125,60.24099349975586 L574.210693359375,61.41740798950195 L576.1124877929688,62.244144439697266 L578.7952880859375,62.691768646240234 L581.930908203125,62.79389953613281 L585.0872192382812,62.64737319946289 L587.5357666015625,62.42289352416992 L588.9766845703125,62.23959732055664 " fill="none" stroke="red" stroke-linecap="round" stroke-width="1" /><path d="M0,0 M434.2904968261719,110.9195785522461 L434.38812255859375,110.69770812988281 L434.405517578125,110.71216583251953 L434.21075439453125,111.32682037353516 L433.7099914550781,112.78742980957031 L432.9502868652344,115.01119232177734 L432.1850280761719,117.33905792236328 L431.59600830078125,119.28224182128906 L431.2690734863281,120.60466003417969 L431.2008361816406,121.2713394165039 L431.2955322265625,121.4208984375 L431.4432678222656,121.3109130859375 L431.6099548339844,121.01226043701172 L431.7252197265625,120.66948699951172 L431.78314208984375,120.42909240722656 L431.8507080078125,120.27610778808594 L432.0393371582031,120.12519073486328 L432.4935607910156,119.90099334716797 L433.32470703125,119.55343627929688 L434.54058837890625,119.05227661132812 L436.0849914550781,118.38674926757812 L437.8218994140625,117.55712127685547 L439.52740478515625,116.636474609375 L440.9789733886719,115.7470932006836 L441.9858703613281,115.04103088378906 L442.4320068359375,114.64061737060547 L442.3310852050781,114.59219360351562 L441.7725830078125,114.9327392578125 L440.88201904296875,115.71990203857422 L439.8687744140625,116.92364501953125 L438.9858703613281,118.42117309570312 L438.46484375,119.9724349975586 L438.4703674316406,121.25973510742188 L439.02435302734375,122.03443908691406 L440.0326232910156,122.1973648071289 L441.3344421386719,121.74652099609375 L442.74151611328125,120.78800964355469 L444.0267028808594,119.4708023071289 L444.953369140625,117.97958374023438 L445.33013916015625,116.54722595214844 L445.0423583984375,115.41311645507812 L444.0928955078125,114.75914001464844 L442.6774597167969,114.62181091308594 L441.1159973144531,114.86886596679688 L439.7571716308594,115.2738037109375 L438.8668212890625,115.62271881103516 L438.4795837402344,115.8014907836914 L438.41888427734375,115.84239196777344 L438.48773193359375,115.81745910644531 M457.6465759277344,105.0 L457.6437683105469,105.01593017578125 L457.6103210449219,105.21170806884766 L457.4752197265625,105.75103759765625 L457.19091796875,106.76651763916016 L456.72698974609375,108.25675964355469 L456.07763671875,110.1335678100586 L455.31671142578125,112.27212524414062 L454.51324462890625,114.54010772705078 L453.72027587890625,116.82943725585938 L453.0036926269531,119.01710510253906 L452.39813232421875,120.96155548095703 L451.9330139160156,122.48916625976562 L451.62872314453125,123.48553466796875 L451.45062255859375,123.93077087402344 L451.36767578125,124.0030517578125 L451.3375244140625,123.90594482421875 M450.5463562011719,117.08817291259766 L450.609619140625,117.0974349975586 L450.93011474609375,117.11194610595703 L451.6923522949219,117.09037780761719 L453.0237731933594,116.97823333740234 L454.88824462890625,116.7298583984375 L457.1159973144531,116.35319519042969 L459.4282531738281,115.8968505859375 L461.574951171875,115.450927734375 L463.35369873046875,115.060546875 L464.6679992675781,114.7277603149414 L465.5092468261719,114.43386840820312 L465.9013977050781,114.15361785888672 L465.86566162109375,113.9085464477539 L465.36029052734375,113.79344177246094 L464.338134765625,113.95360565185547 L462.8063659667969,114.5273208618164 L460.9250793457031,115.5862045288086 L458.98248291015625,117.04671478271484 L457.35748291015625,118.7022933959961 L456.31365966796875,120.28498077392578 L455.9837341308594,121.56423950195312 L456.3299865722656,122.3729019165039 L457.2349548339844,122.61913299560547 L458.5721130371094,122.24419403076172 L460.24810791015625,121.24600982666016 L462.1071472167969,119.74504089355469 L463.9376220703125,117.99971771240234 L465.5103759765625,116.31169891357422 L466.6205139160156,114.98445892333984 L467.1581115722656,114.23942565917969 L467.1755676269531,114.18783569335938 L466.77740478515625,114.85675811767578 L466.0963134765625,116.17832946777344 L465.3338317871094,117.91645050048828 L464.6665344238281,119.75761413574219 L464.20123291015625,121.39168548583984 L464.00994873046875,122.6104736328125 L464.0069885253906,123.3314208984375 L464.0680236816406,123.65416717529297 M475.136962890625,107.81681060791016 L475.06060791015625,107.86637115478516 L474.8301086425781,108.19419860839844 L474.38482666015625,108.99384307861328 L473.7323303222656,110.36262512207031 L472.919921875,112.19070434570312 L472.0392150878906,114.26747131347656 L471.1968994140625,116.37579345703125 L470.4542541503906,118.31475830078125 L469.8622741699219,119.9433364868164 L469.4464416503906,121.18658447265625 L469.1843566894531,122.01560974121094 L469.07806396484375,122.3890151977539 L469.2030029296875,122.25764465332031 L469.6743469238281,121.54483032226562 L470.5772399902344,120.24549865722656 L471.8919982910156,118.52039337158203 L473.46673583984375,116.68372344970703 L475.080810546875,115.01737213134766 L476.5513000488281,113.70216369628906 L477.7618103027344,112.7784423828125 L478.63580322265625,112.2216796875 L479.1155090332031,112.0006332397461 L479.1401672363281,112.12844848632812 L478.6305847167969,112.60736846923828 L477.552978515625,113.4135513305664 L475.9751892089844,114.48436737060547 L474.075439453125,115.73418426513672 L472.13916015625,117.01470947265625 L470.4651794433594,118.20337677001953 L469.2881774902344,119.22850799560547 L468.7376708984375,120.05845642089844 L468.8600769042969,120.7069320678711 L469.6198425292969,121.18974304199219 L470.9429931640625,121.46337890625 L472.69671630859375,121.47856903076172 L474.73394775390625,121.21373748779297 L476.8796081542969,120.66287231445312 L478.9565734863281,119.87596130371094 L480.79852294921875,118.90979766845703 L482.2604675292969,117.82145690917969 L483.23602294921875,116.67618560791016 L483.69287109375,115.56537628173828 L483.66033935546875,114.59306335449219 L483.1789855957031,113.88557434082031 L482.3357238769531,113.56295776367188 L481.2298583984375,113.7131576538086 L479.98944091796875,114.35384368896484 L478.8061828613281,115.42485046386719 L477.8804931640625,116.78479766845703 L477.36322021484375,118.24071502685547 L477.343505859375,119.61136627197266 L477.9711608886719,120.71817016601562 L479.2632141113281,121.44387817382812 L481.1496276855469,121.760986328125 L482.9769287109375,121.7965087890625 L484.28668212890625,121.70699310302734 M506.7344055175781,116.79725646972656 L506.7642517089844,116.64051055908203 L506.7689208984375,116.31153106689453 L506.68896484375,115.7962417602539 L506.4452819824219,115.1529312133789 L505.98291015625,114.48347473144531 L505.26513671875,113.91934967041016 L504.29669189453125,113.60133361816406 L503.1083679199219,113.65569305419922 L501.7568359375,114.16963958740234 L500.3293762207031,115.1636734008789 L498.9542541503906,116.57879638671875 L497.75634765625,118.24153137207031 L496.8882751464844,119.92472839355469 L496.43902587890625,121.39236450195312 L496.44134521484375,122.46797180175781 L496.874267578125,123.05513000488281 L497.69989013671875,123.11653137207031 L498.8566589355469,122.64996337890625 L500.2937927246094,121.68538665771484 L501.8949279785156,120.29790496826172 L503.5087890625,118.67040252685547 L504.9443664550781,117.05358123779297 L506.06475830078125,115.66958618164062 L506.7778625488281,114.69547271728516 L507.0772705078125,114.2138900756836 L506.9886169433594,114.23626708984375 L506.55389404296875,114.78880310058594 L505.84368896484375,115.87763977050781 L504.9918212890625,117.37902069091797 L504.1673889160156,119.09977722167969 L503.5493469238281,120.80488586425781 L503.310546875,122.25450134277344 L503.5004577636719,123.3078842163086 L504.0737609863281,123.94296264648438 L504.72100830078125,124.22480773925781 L505.2160339355469,124.2875747680664 M521.240234375,115.10254669189453 L521.0330810546875,115.59544372558594 L520.6402587890625,116.5095443725586 L520.0641479492188,117.81717681884766 L519.3618774414062,119.31193542480469 L518.6026611328125,120.82388305664062 L517.873291015625,122.17704010009766 L517.2396850585938,123.23111724853516 L516.758056640625,123.8704833984375 L516.4864501953125,124.03551483154297 L516.4413452148438,123.6883544921875 L516.6774291992188,122.83633422851562 L517.246337890625,121.53633880615234 L518.1618041992188,119.90886688232422 L519.384521484375,118.13713073730469 L520.862060546875,116.44434356689453 L522.4605712890625,115.0344009399414 L524.0308227539062,114.0518569946289 L525.4215087890625,113.56136322021484 L526.524658203125,113.57098388671875 L527.2659912109375,114.05302429199219 L527.63720703125,114.95492553710938 L527.6539306640625,116.2016830444336 L527.3366088867188,117.67720794677734 L526.7613525390625,119.22364807128906 L526.0834350585938,120.66043090820312 L525.4642333984375,121.84747314453125 L525.0188598632812,122.68804931640625 L524.81640625,123.13322448730469 L524.8543701171875,123.1478500366211 L525.1427612304688,122.70401000976562 L525.73486328125,121.79328155517578 L526.6414184570312,120.50450134277344 L527.81005859375,118.9930419921875 L529.1661376953125,117.46284484863281 L530.5875244140625,116.101318359375 L531.9485473632812,115.04222106933594 L533.1649169921875,114.37303924560547 L534.105712890625,114.14339447021484 L534.6943969726562,114.37290954589844 L534.9150390625,115.0434799194336 L534.7774658203125,116.08838653564453 L534.3552856445312,117.37422943115234 L533.7954711914062,118.74761962890625 L533.2257690429688,120.04674530029297 L532.801513671875,121.1688232421875 L532.6236572265625,122.05784606933594 L532.7032470703125,122.70133972167969 L533.0136108398438,123.0765609741211 L533.5291137695312,123.16239929199219 L534.2261962890625,122.91382598876953 L535.1041870117188,122.31794738769531 L536.1451416015625,121.40657806396484 L537.286865234375,120.26631164550781 L538.4108276367188,119.01045227050781 L539.4197387695312,117.7729721069336 L540.2412109375,116.65982818603516 L540.8613891601562,115.7354965209961 L541.2960815429688,115.05013275146484 L541.5556030273438,114.66353607177734 L541.588623046875,114.64385986328125 L541.37353515625,115.07818603515625 L540.8973999023438,116.01750946044922 L540.2330932617188,117.38398742675781 L539.5276489257812,118.99650573730469 L538.9410400390625,120.6148910522461 L538.5645751953125,122.01053619384766 L538.4224243164062,123.06562042236328 L538.4688110351562,123.6861801147461 L538.6396484375,123.84406280517578 L538.8976440429688,123.5667953491211 L539.1459350585938,123.11424255371094 L539.3248291015625,122.70675659179688 M542.8130493164062,108.81185913085938 L542.8499755859375,108.77198791503906 L542.90673828125,108.8393783569336 L542.96337890625,108.97803497314453 L542.9998168945312,109.15193176269531 M546.6900634765625,114.96337127685547 L546.4498901367188,115.49571228027344 L545.9760131835938,116.4441146850586 L545.2671508789062,117.73753356933594 L544.4249267578125,119.14766693115234 L543.57275390625,120.52027130126953 L542.85595703125,121.71369934082031 L542.3412475585938,122.64860534667969 L542.0551147460938,123.2619400024414 L541.9780883789062,123.52323913574219 L542.080322265625,123.40628814697266 L542.3818359375,122.86358642578125 L542.9666137695312,121.86662292480469 L543.865234375,120.46292877197266 L545.0670776367188,118.7978286743164 L546.4993286132812,117.10224151611328 L548.0166015625,115.60282897949219 L549.4852905273438,114.45252227783203 L550.7979736328125,113.724853515625 L551.8592529296875,113.44344329833984 L552.6025390625,113.6114273071289 L552.9901733398438,114.22065734863281 L552.9993286132812,115.2340316772461 L552.6689453125,116.57099914550781 L552.1044921875,118.10231018066406 L551.447509765625,119.66741180419922 L550.8587646484375,121.10371398925781 L550.4615478515625,122.29878997802734 L550.3206176757812,123.19049835205078 L550.4666137695312,123.74713134765625 L550.94140625,123.9398422241211 L551.7354125976562,123.71443176269531 L552.8460693359375,123.01187133789062 L554.2000732421875,121.8514404296875 L555.67431640625,120.3411636352539 L557.1259155273438,118.65921020507812 L558.439208984375,117.03411102294922 L559.4815673828125,115.66035461425781 L560.2252807617188,114.63591003417969 L560.6732177734375,113.99708557128906 L560.8357543945312,113.75418853759766 L560.7206420898438,113.90606689453125 L560.3303833007812,114.50212097167969 L559.6436157226562,115.5659408569336 L558.7669677734375,117.01451110839844 L557.9002685546875,118.67308044433594 L557.242919921875,120.32059478759766 L556.9520263671875,121.74056243896484 L557.0877075195312,122.7981185913086 L557.6051025390625,123.41509246826172 L558.4589233398438,123.5438232421875 L559.623046875,123.15363311767578 L561.0355224609375,122.25223541259766 L562.6173095703125,120.90904998779297 L564.2197265625,119.28213500976562 L565.6705322265625,117.61646270751953 L566.82080078125,116.1500244140625 L567.5922241210938,115.04817962646484 L567.9668579101562,114.40824127197266 L567.9965209960938,114.26213836669922 L567.7122192382812,114.62092590332031 L567.1517944335938,115.49414825439453 L566.3905029296875,116.79553985595703 L565.5591430664062,118.33557891845703 L564.8328247070312,119.89451599121094 L564.3726806640625,121.26667022705078 L564.2274169921875,122.32506561279297 L564.2809448242188,122.999267578125 L564.397216796875,123.33587646484375 M576.4237060546875,105.2886734008789 L576.3751220703125,105.43904113769531 L576.2530517578125,105.86510467529297 L576.0220947265625,106.67256164550781 L575.6624145507812,107.8738021850586 L575.16455078125,109.39994812011719 L574.5184936523438,111.16231536865234 L573.735595703125,113.06888580322266 L572.8831176757812,115.0270004272461 L572.0425415039062,116.93327331542969 L571.3074951171875,118.65773010253906 L570.750732421875,120.08509826660156 L570.3955688476562,121.07772064208984 L570.24169921875,121.56583404541016 L570.2679443359375,121.56592559814453 L570.37548828125,121.3135757446289 L570.484375,121.03047180175781 M570.3715209960938,115.70764923095703 L570.390869140625,115.74456024169922 L570.5130615234375,115.86512756347656 L570.8335571289062,116.08807373046875 L571.4320068359375,116.38119506835938 L572.3599853515625,116.65788269042969 L573.6215209960938,116.801025390625 L575.19140625,116.71725463867188 L577.0101318359375,116.3633804321289 L578.9713134765625,115.74823760986328 L580.8845825195312,114.94205474853516 L582.5462646484375,114.05497741699219 L583.7554931640625,113.18108367919922 L584.4033813476562,112.40373992919922 L584.4708251953125,111.7903823852539 L583.9973754882812,111.40290069580078 L583.0313110351562,111.32910919189453 L581.663818359375,111.65190124511719 L580.0325317382812,112.39212036132812 L578.37841796875,113.49079895019531 L577.0023193359375,114.82935333251953 L576.1805419921875,116.24968719482422 L576.0640869140625,117.59941864013672 L576.748291015625,118.74626159667969 L578.1224975585938,119.60061645507812 L579.95947265625,120.11894989013672 L581.6342163085938,120.35624694824219 L582.7667236328125,120.4170150756836 " fill="none" stroke="green" stroke-linecap="round" stroke-width="2" /><path d="M0,0 M404.5906677246094,173.31895446777344 L404.45086669921875,173.36073303222656 L404.14288330078125,173.61961364746094 L403.6178894042969,174.29959106445312 L402.8872985839844,175.5701904296875 L401.9435119628906,177.45257568359375 L400.790283203125,179.83810424804688 L399.4844970703125,182.54505920410156 L398.0697326660156,185.36410522460938 L396.607421875,188.12106323242188 L395.1872863769531,190.65899658203125 L393.8479919433594,192.70289611816406 L392.6463928222656,194.0089111328125 L391.6483154296875,194.47222900390625 L390.95806884765625,194.36865234375 L390.582275390625,194.05380249023438 M402.3359069824219,165.8140106201172 L402.4179992675781,165.82550048828125 L402.5525817871094,165.8787384033203 L402.69171142578125,165.95181274414062 L402.78741455078125,166.0228271484375 M409.41558837890625,172.5535430908203 L409.4258117675781,172.61936950683594 L409.35418701171875,172.837158203125 L409.15618896484375,173.30685424804688 L408.8128967285156,174.0903778076172 L408.41094970703125,175.1700897216797 L408.04620361328125,176.4533233642578 L407.8221130371094,177.80540466308594 L407.8127746582031,179.04957580566406 L408.0988464355469,180.04510498046875 L408.69903564453125,180.6814422607422 L409.6065979003906,180.8692169189453 L410.78436279296875,180.53065490722656 L412.1501159667969,179.61671447753906 L413.60162353515625,178.19839477539062 L415.0174255371094,176.51612854003906 L416.2304382324219,174.90090942382812 L417.10205078125,173.6614227294922 L417.5755310058594,172.97938537597656 L417.68524169921875,172.85665893554688 L417.5245361328125,173.24375915527344 L417.1752624511719,174.08465576171875 L416.7126159667969,175.26568603515625 L416.2240905761719,176.61952209472656 L415.8679504394531,177.95599365234375 L415.80535888671875,179.08407592773438 L416.1210021972656,179.90560913085938 L416.5942077636719,180.3988800048828 L417.01263427734375,180.6245880126953 M427.15234375,173.19488525390625 L426.9963073730469,172.95376586914062 L426.6318359375,172.63890075683594 L426.0125427246094,172.39524841308594 L425.16986083984375,172.4075469970703 L424.1920471191406,172.73194885253906 L423.228759765625,173.32943725585938 L422.4239807128906,174.06370544433594 L421.88995361328125,174.8050537109375 L421.7080993652344,175.47616577148438 L421.9129333496094,176.04759216308594 L422.4669189453125,176.53759765625 L423.2952575683594,176.98695373535156 L424.26007080078125,177.4315948486328 L425.1716613769531,177.9141845703125 L425.86187744140625,178.47593688964844 L426.22039794921875,179.1172332763672 L426.1652526855469,179.80621337890625 L425.6875305175781,180.49017333984375 L424.83551025390625,181.10165405273438 L423.69549560546875,181.56875610351562 L422.3956298828125,181.83084106445312 L421.0973205566406,181.83534240722656 L419.9369812011719,181.56988525390625 L419.1314697265625,180.96620178222656 L418.843994140625,180.01454162597656 L419.163818359375,178.7655029296875 L419.7677307128906,177.60543823242188 L420.3403015136719,176.7948760986328 M436.39495849609375,165.54150390625 L436.40863037109375,165.52195739746094 L436.3248291015625,165.6828155517578 L436.0471496582031,166.2008056640625 L435.5240478515625,167.2133331298828 L434.7945556640625,168.68411254882812 L433.9533996582031,170.49832153320312 L433.10699462890625,172.4857635498047 L432.32623291015625,174.51519775390625 L431.6083679199219,176.48619079589844 L430.9522705078125,178.31842041015625 L430.36273193359375,179.8975067138672 L429.8796691894531,181.1153564453125 L429.5463562011719,181.89125061035156 L429.3706359863281,182.21661376953125 L429.2786560058594,182.11317443847656 L429.20916748046875,181.6239013671875 L429.1143798828125,180.80538940429688 L428.99090576171875,179.7647247314453 L428.843017578125,178.640380859375 L428.6704406738281,177.56912231445312 L428.50067138671875,176.63803100585938 L428.44000244140625,175.86741638183594 L428.6075744628906,175.24710083007812 L429.1253662109375,174.79000854492188 L430.02972412109375,174.50535583496094 L431.2550048828125,174.3875274658203 L432.6917724609375,174.4152069091797 L434.2870178222656,174.51458740234375 L435.9326477050781,174.59803771972656 L437.5471496582031,174.61038208007812 L438.82208251953125,174.5658721923828 L439.607421875,174.5013885498047 M459.51641845703125,174.2880096435547 L459.38555908203125,174.05355834960938 L459.05877685546875,173.6798553466797 L458.45281982421875,173.26702880859375 L457.5197448730469,172.9919891357422 L456.2704162597656,172.97299194335938 L454.8107604980469,173.2669677734375 L453.34423828125,173.8364715576172 L452.1404113769531,174.6001434326172 L451.4480285644531,175.46849060058594 L451.4120178222656,176.3693084716797 L452.0487060546875,177.27626037597656 L453.2387390136719,178.19285583496094 L454.76019287109375,179.12130737304688 L456.32574462890625,180.0636444091797 L457.6445007324219,181.00950622558594 L458.49688720703125,181.93922424316406 L458.7520751953125,182.82958984375 L458.374267578125,183.6477813720703 L457.4191589355469,184.35487365722656 L455.987548828125,184.91317749023438 L454.2478332519531,185.28884887695312 L452.43560791015625,185.4599151611328 L450.7912292480469,185.40777587890625 L449.5472717285156,185.1178436279297 L448.89202880859375,184.59458923339844 L448.9255065917969,183.86509704589844 L449.6620178222656,182.9898681640625 L451.0377197265625,182.05001831054688 L452.9097900390625,181.12506103515625 L455.1264343261719,180.26315307617188 L457.5148620605469,179.464111328125 L459.92724609375,178.70318603515625 L462.2203369140625,177.94712829589844 L464.2485046386719,177.18463134765625 L465.86859130859375,176.43881225585938 L467.0267333984375,175.75515747070312 L467.6935729980469,175.2091064453125 L467.9111022949219,174.9284210205078 L467.7349853515625,175.04757690429688 L467.2095642089844,175.6826934814453 L466.38482666015625,176.85304260253906 L465.4033508300781,178.4226837158203 L464.4197082519531,180.1469268798828 L463.6175842285156,181.758056640625 L463.1011657714844,183.03179931640625 L462.8851318359375,183.87423706054688 L462.8587341308594,184.3164825439453 L462.9117431640625,184.47647094726562 M470.1264953613281,169.4619903564453 L469.97979736328125,169.2757110595703 L469.8001403808594,169.05343627929688 L469.64532470703125,168.8662872314453 L469.5732421875,168.785400390625 M478.0485534667969,165.9467315673828 L477.72454833984375,166.44488525390625 L477.1222839355469,167.37879943847656 L476.2447509765625,168.75457763671875 L475.19464111328125,170.43788146972656 L474.07635498046875,172.36473083496094 L472.98974609375,174.4320831298828 L472.009521484375,176.49720764160156 L471.227783203125,178.37681579589844 L470.6672058105469,179.88648986816406 L470.3161315917969,180.90919494628906 L470.1454162597656,181.45779418945312 L470.08697509765625,181.6622772216797 M471.1134033203125,176.36131286621094 L471.27569580078125,176.3861846923828 L471.6609191894531,176.4248046875 L472.38323974609375,176.48692321777344 L473.559814453125,176.55087280273438 L475.17352294921875,176.5919952392578 L477.0755615234375,176.5809783935547 L478.7341613769531,176.5392303466797 L479.80914306640625,176.4837646484375 M493.7198486328125,175.2315216064453 L493.6293029785156,175.39215087890625 L493.39520263671875,175.83041381835938 L492.9759826660156,176.6460723876953 L492.3740539550781,177.8158721923828 L491.6587829589844,179.22274780273438 L490.933349609375,180.663818359375 L490.2956848144531,181.93492126464844 L489.8365173339844,182.9020538330078 L489.5695495605469,183.50537109375 L489.44830322265625,183.71408081054688 L489.4369812011719,183.53395080566406 L489.54571533203125,182.93313598632812 L489.81622314453125,181.90701293945312 L490.3077392578125,180.5402374267578 L491.0133056640625,179.00564575195312 L491.88031005859375,177.49717712402344 L492.8608093261719,176.2057342529297 L493.9247131347656,175.2464141845703 L495.034912109375,174.67233276367188 L496.14129638671875,174.48902893066406 L497.1825866699219,174.66331481933594 L498.1371765136719,175.09536743164062 L499.0517272949219,175.6635284423828 L499.9930114746094,176.2237091064453 L500.9891357421875,176.65943908691406 L502.019775390625,176.88668823242188 L503.0172424316406,176.85751342773438 L503.92034912109375,176.5785369873047 L504.694091796875,176.11810302734375 L505.306396484375,175.58651733398438 L505.7245788574219,175.10498046875 L505.9712219238281,174.74266052246094 L506.0787658691406,174.50228881835938 L506.0832214355469,174.41627502441406 L505.97674560546875,174.560791015625 L505.7041931152344,175.07643127441406 L505.2059326171875,176.05430603027344 L504.5057373046875,177.45037841796875 L503.6954040527344,179.09329223632812 L502.9285583496094,180.75547790527344 L502.3192443847656,182.1960906982422 L501.9349365234375,183.27769470214844 L501.75299072265625,183.93310546875 L501.70269775390625,184.22378540039062 M507.932861328125,169.16421508789062 L507.9403076171875,169.0866241455078 L507.9729919433594,169.0154266357422 L508.01727294921875,168.9706268310547 L508.0594787597656,168.97218322753906 M518.0086059570312,177.44580078125 L517.8646850585938,177.08737182617188 L517.5308837890625,176.51846313476562 L516.9581298828125,175.84190368652344 L516.134521484375,175.261962890625 L515.06396484375,174.89248657226562 L513.8123168945312,174.83221435546875 L512.4533081054688,175.14073181152344 L511.0828857421875,175.8485107421875 L509.84039306640625,176.93017578125 L508.8731689453125,178.29039001464844 L508.30224609375,179.7413330078125 L508.2353515625,181.04638671875 L508.67828369140625,181.9813690185547 L509.585693359375,182.39442443847656 L510.86114501953125,182.23069763183594 L512.4024658203125,181.52914428710938 L514.0540771484375,180.3946075439453 L515.6632080078125,179.017333984375 L517.0642700195312,177.63095092773438 L518.139892578125,176.4763946533203 L518.8096923828125,175.7418670654297 L519.1004638671875,175.53866577148438 L519.0518188476562,175.89984130859375 L518.72216796875,176.84751892089844 L518.1814575195312,178.34552001953125 L517.4829711914062,180.2996063232422 L516.6337280273438,182.56568908691406 L515.675048828125,184.97317504882812 L514.6141357421875,187.33935546875 L513.4617309570312,189.525390625 L512.263671875,191.40322875976562 L511.0815734863281,192.8516845703125 L509.9544372558594,193.7884979248047 L508.939453125,194.1807861328125 L508.0848388671875,194.04537963867188 L507.43865966796875,193.44046020507812 L507.0646057128906,192.44715881347656 L507.03448486328125,191.1218719482422 L507.41680908203125,189.53172302246094 L508.26690673828125,187.739990234375 L509.62396240234375,185.80520629882812 L511.4969787597656,183.77862548828125 L513.8060913085938,181.7124786376953 L516.4189453125,179.6307830810547 L519.175048828125,177.5644073486328 L521.9146728515625,175.53497314453125 L524.5213623046875,173.55670166015625 L526.9299926757812,171.65426635742188 L529.044677734375,169.8896484375 L530.7903442382812,168.34909057617188 L532.0883178710938,167.11886596679688 L532.871826171875,166.26622009277344 L533.1199340820312,165.85421752929688 L532.8372192382812,165.94561767578125 L532.0286865234375,166.61209106445312 L530.748046875,167.88999938964844 L529.1173095703125,169.70314025878906 L527.293701171875,171.87457275390625 L525.4934692382812,174.1891632080078 L523.9183959960938,176.41595458984375 L522.7081298828125,178.35350036621094 L521.951416015625,179.8535919189453 L521.7064208984375,180.79159545898438 L521.9738159179688,181.10018920898438 L522.7807006835938,180.7870330810547 L524.1358032226562,179.93792724609375 L525.97265625,178.74598693847656 L528.1149291992188,177.49197387695312 L530.2847900390625,176.44613647460938 L532.149169921875,175.79592895507812 L533.4801025390625,175.59725952148438 L534.1935424804688,175.82275390625 L534.30810546875,176.42308044433594 L533.9279174804688,177.3578338623047 L533.204833984375,178.54779052734375 L532.3261108398438,179.85394287109375 L531.51806640625,181.0936737060547 L531.0078125,182.09019470214844 L530.9217529296875,182.70462036132812 L531.3421020507812,182.86070251464844 L532.2583618164062,182.49874877929688 L533.62744140625,181.6010284423828 L535.379638671875,180.20216369628906 L537.447998046875,178.37887573242188 L539.7026977539062,176.2551727294922 L542.0086669921875,173.980712890625 L544.189208984375,171.7156524658203 L546.0619506835938,169.65750122070312 L547.5023193359375,167.9613800048828 L548.46142578125,166.7274932861328 L548.922607421875,166.0393524169922 L548.89404296875,165.95358276367188 L548.387451171875,166.5394744873047 L547.394287109375,167.85133361816406 L546.0111083984375,169.7857666015625 L544.39453125,172.09970092773438 L542.7451171875,174.47836303710938 L541.2745361328125,176.60508728027344 L540.1328125,178.29019165039062 L539.3353271484375,179.44595336914062 L538.8399658203125,180.02825927734375 L538.5326538085938,180.04434204101562 L538.2730712890625,179.54139709472656 L537.9970092773438,178.63070678710938 L537.697509765625,177.54220581054688 L537.3787841796875,176.50100708007812 L537.100830078125,175.66468811035156 L536.9678344726562,175.08642578125 L537.0978393554688,174.7101287841797 L537.664306640625,174.45428466796875 L538.7657470703125,174.29957580566406 L540.41064453125,174.25692749023438 L542.43798828125,174.33323669433594 L544.5863647460938,174.49925231933594 L546.3104858398438,174.66867065429688 L547.368896484375,174.78134155273438 M568.3050537109375,167.9202880859375 L568.2733154296875,168.10092163085938 L568.130615234375,168.57818603515625 L567.7896118164062,169.46144104003906 L567.2109985351562,170.77383422851562 L566.409423828125,172.4613800048828 L565.4237060546875,174.42556762695312 L564.3074951171875,176.53399658203125 L563.1109619140625,178.630615234375 L561.8864135742188,180.5196533203125 L560.74951171875,182.046142578125 L559.80419921875,183.09942626953125 L559.16357421875,183.56124877929688 L558.8740234375,183.40151977539062 L558.8997192382812,182.67678833007812 L559.071044921875,181.79005432128906 L559.2528076171875,181.08404541015625 M559.4627075195312,176.74044799804688 L559.4520263671875,176.6800994873047 L559.53515625,176.65786743164062 L559.8289794921875,176.71917724609375 L560.4588623046875,176.8751678466797 L561.488037109375,177.03424072265625 L562.94189453125,177.06985473632812 L564.7726440429688,176.86334228515625 L566.895263671875,176.35488891601562 L569.2036743164062,175.5101318359375 L571.578369140625,174.34275817871094 L573.891357421875,172.89068603515625 L576.0305786132812,171.23939514160156 L577.8598022460938,169.52670288085938 L579.255126953125,167.91403198242188 L580.1588134765625,166.5471954345703 L580.5607299804688,165.5511932373047 L580.497314453125,165.0098419189453 L580.0289306640625,165.0 L579.1804809570312,165.58914184570312 L577.9926147460938,166.7960968017578 L576.5608520507812,168.5755157470703 L574.9968872070312,170.80015563964844 L573.42041015625,173.2830352783203 L571.92578125,175.81610107421875 L570.59228515625,178.1780242919922 L569.492431640625,180.14739990234375 L568.6790771484375,181.60215759277344 L568.163818359375,182.4958038330078 L567.9462890625,182.85043334960938 L568.0017700195312,182.72109985351562 L568.3843994140625,182.1432342529297 L569.1563110351562,181.138671875 L570.3372802734375,179.83416748046875 L571.8564453125,178.42291259765625 L573.5628662109375,177.1132354736328 L575.24365234375,176.08010864257812 L576.7388916015625,175.41156005859375 L577.9362182617188,175.116455078125 L578.7891235351562,175.19903564453125 L579.2691650390625,175.67181396484375 L579.353271484375,176.5225067138672 L579.0763549804688,177.6980438232422 L578.5559692382812,179.06936645507812 L577.9708251953125,180.46640014648438 L577.5291748046875,181.73060607910156 L577.3948974609375,182.76254272460938 L577.6383056640625,183.5017852783203 L578.299560546875,183.90879821777344 L579.3983154296875,183.93350219726562 L580.9086303710938,183.545166015625 L582.739013671875,182.74496459960938 L584.7427368164062,181.60479736328125 L586.6900634765625,180.23599243164062 L588.3660888671875,178.77818298339844 L589.5973510742188,177.37655639648438 L590.2921142578125,176.16636657714844 L590.4332275390625,175.25086975097656 L590.0946655273438,174.7306365966797 L589.3468017578125,174.67225646972656 L588.2823486328125,175.12364196777344 L586.9769897460938,176.0780792236328 L585.577880859375,177.44529724121094 L584.2853393554688,179.04702758789062 L583.3348388671875,180.67742919921875 L582.8921508789062,182.13026428222656 L583.0369262695312,183.2566680908203 L583.728759765625,183.96273803710938 L584.90478515625,184.19651794433594 L586.4692993164062,183.94554138183594 L588.296142578125,183.25924682617188 L590.2166748046875,182.23753356933594 L592.06005859375,181.02511596679688 L593.6614990234375,179.8035888671875 L594.9252319335938,178.7286834716797 L595.816162109375,177.9037628173828 L596.34814453125,177.39053344726562 L596.55126953125,177.23463439941406 L596.4544067382812,177.46258544921875 L596.0455322265625,178.1085968017578 L595.3433837890625,179.13818359375 L594.4367065429688,180.4010467529297 L593.4931030273438,181.6736297607422 L592.6895141601562,182.7571563720703 L592.140380859375,183.49598693847656 L591.850341796875,183.82260131835938 L591.777587890625,183.71511840820312 L591.9009399414062,183.15750122070312 L592.224365234375,182.17401123046875 L592.7369995117188,180.885986328125 L593.4114990234375,179.47634887695312 L594.185546875,178.15447998046875 L594.9736938476562,177.0843505859375 L595.7318725585938,176.35012817382812 L596.4368896484375,175.96041870117188 L597.0888061523438,175.88702392578125 L597.7388305664062,176.07374572753906 L598.4439697265625,176.45591735839844 L599.251220703125,176.9485626220703 L600.1957397460938,177.45657348632812 L601.301025390625,177.88494873046875 L602.556396484375,178.14901733398438 L603.9283447265625,178.18746948242188 L605.33544921875,177.9751739501953 L606.6710205078125,177.52149963378906 L607.7823486328125,176.8678741455078 L608.5675048828125,176.0970916748047 L608.9405517578125,175.3064727783203 L608.8544311523438,174.62754821777344 L608.2975463867188,174.185302734375 L607.3140869140625,174.09384155273438 L605.96142578125,174.43324279785156 L604.3857421875,175.22007751464844 L602.7827758789062,176.3855438232422 L601.3740234375,177.81451416015625 L600.3984375,179.33396911621094 L600.0809326171875,180.7802276611328 L600.54931640625,182.02220153808594 L601.79052734375,182.96630859375 L603.7359619140625,183.5491180419922 L606.119384765625,183.77078247070312 L608.6251831054688,183.6763458251953 L610.6410522460938,183.44813537597656 L611.8831787109375,183.23587036132812 " fill="none" stroke="black" stroke-linecap="round" stroke-width="1" /></svg>