<?xml version="1.0" encoding="utf-8" ?>
<svg baseProfile="full" height="100%" version="1.1" viewBox="0,0,1000,180" width="100%" xmlns="http://www.w3.org/2000/svg" xmlns:ev="http://www.w3.org/2001/xml-events" xmlns:xlink="http://www.w3.org/1999/xlink"><defs /><rect fill="white" height="180" width="1000" x="0" y="0" /><path d="M0,0 M343.1097412109375,64.57849884033203 L343.11083984375,64.55266571044922 L343.1205139160156,64.52687072753906 L343.1364440917969,64.50967407226562 M375.8366394042969,51.69071578979492 L375.46240234375,51.98408889770508 L374.7785949707031,52.7470817565918 L373.7956848144531,54.12399673461914 L372.61334228515625,56.079490661621094 L371.30072021484375,58.45526885986328 L369.91021728515625,61.008506774902344 L368.5284729003906,63.47275161743164 L367.2816467285156,65.62112426757812 L366.27996826171875,67.2984390258789 L365.5981140136719,68.40138244628906 L365.2877502441406,68.86720275878906 L365.3397521972656,68.63685607910156 L365.7813720703125,67.62811279296875 L366.6387939453125,65.78478240966797 L367.93048095703125,63.237911224365234 L369.6148681640625,60.22696304321289 L371.5962219238281,57.04103088378906 L373.72430419921875,53.96460723876953 L375.8165283203125,51.23025131225586 L377.6808776855469,48.992794036865234 L379.18743896484375,47.40126419067383 L380.25927734375,46.53414535522461 L380.89935302734375,46.4174690246582 L381.1570129394531,47.04839324951172 L381.070068359375,48.41990661621094 L380.6623229980469,50.44045639038086 L380.0096130371094,52.89464569091797 L379.27142333984375,55.46039962768555 L378.6373291015625,57.78660202026367 L378.28521728515625,59.593143463134766 L378.3252258300781,60.734554290771484 L378.7817077636719,61.16669845581055 L379.6566467285156,60.868778228759766 L380.96612548828125,59.846885681152344 L382.66424560546875,58.17314147949219 L384.6536560058594,56.02263259887695 L386.7918701171875,53.652164459228516 L388.892333984375,51.35781478881836 L390.77618408203125,49.37825012207031 L392.3125,47.86278533935547 L393.4043273925781,46.86012649536133 L394.02294921875,46.39925003051758 L394.19549560546875,46.505489349365234 L393.9312438964844,47.23331832885742 L393.22454833984375,48.651126861572266 L392.0933532714844,50.74540328979492 L390.6321105957031,53.35153579711914 L389.0487365722656,56.22767639160156 L387.5987548828125,59.05335235595703 L386.4844665527344,61.527122497558594 L385.8055725097656,63.46790313720703 L385.5714111328125,64.77793884277344 L385.7724914550781,65.43555450439453 L386.41790771484375,65.4849624633789 L387.4974670410156,64.960693359375 L388.9656982421875,63.92237091064453 L390.7191467285156,62.51407241821289 L392.5936279296875,60.90752410888672 L394.4416809082031,59.28995895385742 L396.1556396484375,57.8350830078125 L397.6077880859375,56.641014099121094 L398.72552490234375,55.74976348876953 L399.46417236328125,55.20246887207031 L399.77691650390625,55.028751373291016 L399.67547607421875,55.276573181152344 L399.2185363769531,56.01252746582031 L398.4561767578125,57.24251937866211 L397.5378112792969,58.847557067871094 L396.6588439941406,60.61211395263672 L395.98272705078125,62.267478942871094 L395.65386962890625,63.593414306640625 L395.74749755859375,64.46012878417969 L396.27215576171875,64.83218383789062 L397.2126770019531,64.69725036621094 L398.53729248046875,64.07823944091797 L400.1368103027344,63.03534698486328 L401.87554931640625,61.69215393066406 L403.60479736328125,60.2181396484375 L405.19952392578125,58.80471420288086 L406.55364990234375,57.61005401611328 L407.603271484375,56.71139144897461 L408.32244873046875,56.12939453125 L408.72003173828125,55.858131408691406 L408.84906005859375,55.916324615478516 L408.7523498535156,56.34126281738281 L408.4511413574219,57.21080780029297 L407.93121337890625,58.530845642089844 L407.21722412109375,60.26906967163086 L406.3427429199219,62.365753173828125 L405.354248046875,64.74418640136719 L404.2644958496094,67.29827117919922 L403.07696533203125,69.9298095703125 L401.779541015625,72.50193786621094 L400.377685546875,74.8624038696289 L398.91961669921875,76.87325286865234 L397.49072265625,78.4166259765625 L396.193115234375,79.41316986083984 L395.12689208984375,79.8288345336914 L394.37823486328125,79.67389678955078 L393.97021484375,78.98565673828125 L393.95062255859375,77.83302307128906 L394.3721923828125,76.32801055908203 L395.2828063964844,74.60585021972656 L396.7102355957031,72.795166015625 L398.6473388671875,70.97980499267578 L401.03216552734375,69.2276611328125 L403.7810363769531,67.60262298583984 L406.8427734375,66.11756134033203 L410.0499572753906,64.77570343017578 L413.18890380859375,63.582550048828125 L415.6399230957031,62.68062973022461 L417.1281433105469,62.12898254394531 M431.7538146972656,62.86565399169922 L432.1930847167969,62.54756546020508 L433.0767822265625,61.88218307495117 L434.44036865234375,60.82423782348633 L436.1692199707031,59.42555618286133 L438.1722717285156,57.73713684082031 L440.3111877441406,55.833946228027344 L442.4586181640625,53.78823471069336 L444.49346923828125,51.705474853515625 L446.27862548828125,49.728633880615234 L447.69183349609375,47.99603271484375 L448.6828918457031,46.61700439453125 L449.1971740722656,45.64052963256836 L449.2289123535156,45.09141540527344 L448.779052734375,45.0 L447.833251953125,45.42859649658203 L446.4162292480469,46.45494079589844 L444.637451171875,48.10415267944336 L442.63916015625,50.311126708984375 L440.6227111816406,52.93524169921875 L438.7980651855469,55.773101806640625 L437.3397216796875,58.58390426635742 L436.4014892578125,61.154571533203125 L436.0728759765625,63.287986755371094 L436.3825988769531,64.84748840332031 L437.3092041015625,65.75874328613281 L438.78948974609375,66.00897979736328 L440.7230529785156,65.62401580810547 L442.990234375,64.69960021972656 L445.43096923828125,63.38417434692383 L447.86859130859375,61.859657287597656 L450.13006591796875,60.294891357421875 L452.05963134765625,58.85725402832031 L453.54620361328125,57.67119216918945 L454.5430908203125,56.792686462402344 L455.07611083984375,56.255916595458984 L455.2007141113281,56.08017349243164 L454.981689453125,56.2762565612793 L454.4620666503906,56.89482116699219 L453.696044921875,57.96267318725586 L452.78076171875,59.375244140625 L451.87738037109375,60.95170211791992 L451.15167236328125,62.47244644165039 L450.7317810058594,63.75607681274414 L450.66302490234375,64.7095718383789 L450.9540100097656,65.3228988647461 L451.59814453125,65.58264923095703 L452.61517333984375,65.47502136230469 L454.00372314453125,64.98175811767578 L455.71575927734375,64.12342834472656 L457.656005859375,62.94496154785156 L459.7322998046875,61.51479721069336 L461.8709411621094,59.87900924682617 L464.02288818359375,58.05923843383789 L466.15216064453125,56.08188247680664 L468.18170166015625,54.00926208496094 L470.01556396484375,51.946067810058594 L471.56414794921875,50.054039001464844 L472.76226806640625,48.476112365722656 L473.5687255859375,47.298431396484375 L473.9898681640625,46.571956634521484 L474.0181579589844,46.331844329833984 L473.6466064453125,46.63776397705078 L472.8599853515625,47.60704803466797 L471.661865234375,49.30062484741211 L470.1072998046875,51.675804138183594 L468.29730224609375,54.59590530395508 L466.3636474609375,57.85816192626953 L464.45135498046875,61.26282501220703 L462.67523193359375,64.63343048095703 L461.1254577636719,67.78312683105469 L459.86865234375,70.51632690429688 L458.94427490234375,72.6742172241211 L458.3524169921875,74.16796112060547 L458.049560546875,75.03340911865234 L457.9422607421875,75.4182357788086 L457.9329833984375,75.52244567871094 M459.11602783203125,65.84078979492188 L459.2762756347656,65.60104370117188 L459.61236572265625,65.33409881591797 L460.1847839355469,65.150634765625 L461.0246276855469,65.1499252319336 L462.169921875,65.25418090820312 L463.6251220703125,65.34293365478516 L465.3828125,65.28536987304688 L467.40887451171875,65.02700805664062 L469.6624755859375,64.54180145263672 L472.0796203613281,63.83436965942383 L474.54107666015625,62.917179107666016 L476.87164306640625,61.816490173339844 L478.88055419921875,60.58528518676758 L480.42156982421875,59.340999603271484 L481.3962097167969,58.192264556884766 L481.79840087890625,57.24368667602539 L481.666015625,56.56345748901367 L481.04803466796875,56.21430206298828 L479.9914245605469,56.26754379272461 L478.5828552246094,56.79924774169922 L476.9324951171875,57.793212890625 L475.25274658203125,59.18272399902344 L473.81097412109375,60.81768798828125 L472.87115478515625,62.515953063964844 L472.62945556640625,64.1022720336914 L473.18927001953125,65.40504455566406 L474.53070068359375,66.2883071899414 L476.57763671875,66.60458374023438 L479.08050537109375,66.28939819335938 L481.69183349609375,65.4028091430664 L483.7716979980469,64.40079498291016 L485.02484130859375,63.62531280517578 M499.19140625,56.4744987487793 L499.12603759765625,56.28814697265625 L498.93218994140625,55.98784637451172 L498.5324401855469,55.67414474487305 L497.85540771484375,55.53855514526367 L496.8727722167969,55.75645446777344 L495.6102294921875,56.43480682373047 L494.20733642578125,57.551788330078125 L492.87127685546875,58.95134735107422 L491.8149719238281,60.40951156616211 L491.1898193359375,61.70492935180664 L491.05322265625,62.66706848144531 L491.375244140625,63.21237564086914 L492.10919189453125,63.299896240234375 L493.2022705078125,62.923614501953125 L494.58056640625,62.11497497558594 L496.1447448730469,60.9599494934082 L497.73004150390625,59.592105865478516 L499.13690185546875,58.22056198120117 L500.210205078125,57.039642333984375 L500.8914794921875,56.18336486816406 L501.2153015136719,55.68769836425781 L501.28533935546875,55.553932189941406 L501.1673889160156,55.79453659057617 L500.876220703125,56.50044250488281 L500.4078369140625,57.77829360961914 L499.7708740234375,59.635841369628906 L498.981689453125,61.95366287231445 L498.0807800292969,64.54619598388672 L497.0677490234375,67.1841812133789 L495.93804931640625,69.69491577148438 L494.6770935058594,71.9618148803711 L493.317626953125,73.8736572265625 L491.92852783203125,75.34196472167969 L490.619140625,76.312255859375 L489.48382568359375,76.74310302734375 L488.60906982421875,76.63663482666016 L488.0495300292969,76.04161071777344 L487.8686828613281,75.0165786743164 L488.1225891113281,73.62471771240234 L488.8659362792969,71.95962524414062 L490.0923156738281,70.10216522216797 L491.7617492675781,68.1457748413086 L493.8183288574219,66.21710968017578 L496.18914794921875,64.41980743408203 L498.79656982421875,62.80765151977539 L501.5731201171875,61.413108825683594 L504.39605712890625,60.19328308105469 L507.13885498046875,59.116668701171875 L509.66766357421875,58.19338607788086 L511.83319091796875,57.455780029296875 L513.5140380859375,56.91700744628906 L514.6517333984375,56.59021759033203 L515.24951171875,56.41608810424805 L515.39013671875,56.337806701660156 L515.181640625,56.339622497558594 L514.6746826171875,56.45170974731445 L513.8856201171875,56.73424530029297 L512.809814453125,57.299232482910156 L511.50079345703125,58.171871185302734 L510.0882568359375,59.30487823486328 L508.7790222167969,60.59425354003906 L507.75909423828125,61.88106155395508 L507.19403076171875,63.010887145996094 L507.14739990234375,63.87065124511719 L507.6361389160156,64.35940551757812 L508.6124267578125,64.41371154785156 L509.99847412109375,64.01701354980469 L511.65289306640625,63.20035171508789 L513.4031982421875,62.06206512451172 L515.0211181640625,60.74396514892578 L516.3126831054688,59.43581008911133 L517.1569213867188,58.31021499633789 L517.5634765625,57.48036193847656 L517.6318969726562,56.983917236328125 L517.5191650390625,56.78896713256836 L517.3709716796875,56.8155517578125 L517.2930297851562,56.99984359741211 L517.3500366210938,57.27693176269531 L517.6129150390625,57.566253662109375 L518.1315307617188,57.77112579345703 L518.9456787109375,57.78628158569336 L520.0841064453125,57.497982025146484 L521.5479736328125,56.84576416015625 L523.3001708984375,55.833885192871094 L525.268310546875,54.512901306152344 L527.3236083984375,52.975589752197266 L529.3125610351562,51.348411560058594 L531.0975341796875,49.75572967529297 L532.5599365234375,48.329833984375 L533.6600341796875,47.180824279785156 L534.384765625,46.370704650878906 L534.722900390625,45.943992614746094 L534.6746826171875,45.955345153808594 L534.245849609375,46.480472564697266 L533.407470703125,47.59486389160156 L532.213623046875,49.310325622558594 L530.7450561523438,51.52643966674805 L529.1102905273438,54.065460205078125 L527.4589233398438,56.70155715942383 L525.933837890625,59.227108001708984 L524.629150390625,61.45928955078125 L523.6176147460938,63.27602767944336 L522.9144287109375,64.61917877197266 L522.48291015625,65.42621612548828 L522.2666015625,65.69102478027344 L522.1841430664062,65.47550964355469 L522.1685791015625,65.05260467529297 L522.1737060546875,64.66155242919922 M522.6572875976562,58.821475982666016 L522.928955078125,58.325416564941406 L523.4876098632812,57.58176040649414 L524.43310546875,56.71439743041992 L525.7136840820312,55.93929672241211 L527.22119140625,55.298057556152344 L528.5294189453125,54.855342864990234 L529.3906860351562,54.59782409667969 M536.8077392578125,52.791282653808594 L536.8290405273438,52.58036804199219 L536.8349609375,52.20396423339844 L536.7955322265625,51.68337631225586 L536.6851196289062,51.09872817993164 L536.4968872070312,50.51421356201172 L536.2385864257812,49.982627868652344 L535.9223022460938,49.532562255859375 L535.6036376953125,49.19244384765625 L535.3323974609375,48.97401428222656 L535.1377563476562,48.87131118774414 L535.0193481445312,48.90681076049805 L534.972412109375,49.104888916015625 L534.9854736328125,49.49669647216797 L535.0823974609375,50.08046340942383 L535.2904663085938,50.83312225341797 L535.6201171875,51.67628479003906 L536.0927734375,52.53649139404297 L536.7296752929688,53.35013961791992 L537.5577392578125,54.07219314575195 L538.5950927734375,54.64765167236328 L539.8648071289062,55.044803619384766 L541.3495483398438,55.209964752197266 L543.0206298828125,55.11863708496094 L544.8162231445312,54.767704010009766 L546.661376953125,54.17256546020508 L548.480712890625,53.35981750488281 L550.2311401367188,52.37822341918945 L551.8585205078125,51.27886199951172 L553.3106689453125,50.13968276977539 L554.514892578125,49.0298957824707 L555.4041137695312,48.028995513916016 L555.9540405273438,47.19156265258789 L556.1884765625,46.5411262512207 L556.1649780273438,46.087188720703125 L555.9332885742188,45.84294128417969 L555.5009765625,45.832359313964844 L554.826904296875,46.12834930419922 L553.8814697265625,46.80400085449219 L552.6636962890625,47.894065856933594 L551.2359619140625,49.39020919799805 L549.7034301757812,51.23961639404297 L548.1744384765625,53.36857604980469 L546.7147216796875,55.722293853759766 L545.361083984375,58.26851272583008 L544.1035766601562,60.96646499633789 L542.930908203125,63.765384674072266 L541.843994140625,66.58719635009766 L540.852783203125,69.3121337890625 L539.9915771484375,71.79196166992188 L539.2985229492188,73.88719940185547 L538.7918701171875,75.49091339111328 L538.480712890625,76.578857421875 L538.3448486328125,77.17788696289062 L538.354248046875,77.323486328125 L538.497314453125,76.99561309814453 L538.8023681640625,76.15950775146484 L539.2930908203125,74.79730224609375 L539.9929809570312,73.00164794921875 L540.9008178710938,70.9142074584961 L541.9969482421875,68.70368957519531 L543.2371215820312,66.48353576660156 L544.5960083007812,64.34210205078125 L546.0174560546875,62.32540512084961 L547.4575805664062,60.51024627685547 L548.8895263671875,58.94207763671875 L550.3097534179688,57.65036392211914 L551.7236938476562,56.636905670166016 L553.1600341796875,55.886329650878906 L554.6433715820312,55.348876953125 L556.1873779296875,54.96931838989258 L557.7703247070312,54.65802764892578 L559.35595703125,54.32439041137695 L560.8856811523438,53.90668869018555 L562.323974609375,53.357643127441406 L563.6534423828125,52.65275192260742 L564.8631591796875,51.78522491455078 L565.913330078125,50.765472412109375 L566.759765625,49.63482666015625 L567.357421875,48.488059997558594 L567.6859741210938,47.421142578125 L567.74853515625,46.524471282958984 L567.5748901367188,45.857154846191406 L567.1945190429688,45.47554397583008 L566.625732421875,45.434959411621094 L565.8814697265625,45.81951141357422 L564.9645385742188,46.67166519165039 L563.9073486328125,47.978599548339844 L562.7706909179688,49.65323257446289 L561.637451171875,51.55974578857422 L560.5938110351562,53.550331115722656 L559.726318359375,55.517086029052734 L559.0938720703125,57.354087829589844 L558.7573852539062,58.988216400146484 L558.75,60.3701171875 L559.0663452148438,61.449981689453125 L559.7088012695312,62.198307037353516 L560.6815185546875,62.59983444213867 L561.976806640625,62.63449478149414 L563.5892333984375,62.30448913574219 L565.473388671875,61.64824295043945 L567.5315551757812,60.73395538330078 L569.651123046875,59.653709411621094 L571.6918334960938,58.498443603515625 L573.4971923828125,57.37916946411133 L574.9375,56.40296173095703 L575.9439697265625,55.66572570800781 L576.5350952148438,55.205196380615234 L576.7611694335938,55.01060104370117 L576.6979370117188,55.046844482421875 L576.367919921875,55.321861267089844 L575.7756958007812,55.87724685668945 L574.9583740234375,56.74847412109375 L574.0299072265625,57.879520416259766 L573.1095581054688,59.1705436706543 L572.3563232421875,60.483436584472656 L571.8672485351562,61.68861770629883 L571.70263671875,62.696720123291016 L571.8947143554688,63.443458557128906 L572.4708251953125,63.86628723144531 L573.4285888671875,63.9382209777832 L574.7545166015625,63.636199951171875 L576.4005126953125,62.97751998901367 L578.2870483398438,62.02973175048828 L580.311279296875,60.87997817993164 L582.3557739257812,59.63081741333008 L584.3011474609375,58.40181350708008 L585.9916381835938,57.29115295410156 L587.3208618164062,56.406593322753906 L588.22216796875,55.80436706542969 L588.6934814453125,55.497764587402344 L588.792724609375,55.46857452392578 L588.599365234375,55.732181549072266 L588.1243896484375,56.33329391479492 L587.3814086914062,57.34172821044922 L586.3728637695312,58.76019287109375 L585.1098022460938,60.55852508544922 L583.6333618164062,62.627986907958984 L582.0233764648438,64.8476791381836 L580.359130859375,67.07209777832031 L578.7429809570312,69.11500549316406 L577.3052978515625,70.78909301757812 L576.1541748046875,71.98995208740234 L575.353515625,72.6617202758789 L574.934326171875,72.82788848876953 L574.8948974609375,72.51840209960938 L575.23876953125,71.72159576416016 L576.0023803710938,70.44976043701172 L577.2077026367188,68.78939056396484 L578.8353271484375,66.86502075195312 L580.82275390625,64.84459686279297 L583.084228515625,62.869869232177734 L585.5369873046875,61.049591064453125 L588.0858154296875,59.4591178894043 L590.6259155273438,58.16780090332031 L593.0359497070312,57.21924591064453 L595.2096557617188,56.65331268310547 L597.0482177734375,56.46571350097656 L598.4931640625,56.64689636230469 L599.4841918945312,57.147422790527344 L599.9930419921875,57.91478729248047 L599.9918212890625,58.88578414916992 L599.50537109375,59.993228912353516 L598.578125,61.12512969970703 L597.3221435546875,62.17654800415039 L595.8612060546875,63.0222053527832 L594.3494262695312,63.57952117919922 L592.8912353515625,63.81382369995117 L591.5745849609375,63.717262268066406 L590.4634399414062,63.344295501708984 L589.6021728515625,62.79578399658203 L589.041259765625,62.27985382080078 L588.762451171875,61.93059539794922 M613.7212524414062,57.9372444152832 L613.277587890625,58.5151252746582 L612.4613647460938,59.59332275390625 L611.263916015625,61.171470642089844 L609.7849731445312,63.09150695800781 L608.0592041015625,65.26896667480469 L606.1767578125,67.59915161132812 L604.2584838867188,69.9591064453125 L602.5086059570312,72.13549041748047 L601.0906982421875,73.927734375 L600.1015625,75.16938018798828 L599.5662841796875,75.77741241455078 L599.455078125,75.73663330078125 L599.76123046875,75.0497817993164 L600.52783203125,73.71385955810547 L601.7716064453125,71.80906677246094 L603.4732666015625,69.48979187011719 L605.5700073242188,66.97608947753906 L607.9509887695312,64.47911834716797 L610.5216064453125,62.16987991333008 L613.1986083984375,60.16668701171875 L615.890380859375,58.56828689575195 L618.4954833984375,57.444366455078125 L620.8968505859375,56.83073425292969 L622.9904174804688,56.70100402832031 L624.6922607421875,56.987762451171875 L625.9479370117188,57.599308013916016 L626.716064453125,58.44757080078125 L626.9493408203125,59.443443298339844 L626.5946044921875,60.53129959106445 L625.6224975585938,61.63835144042969 L624.0676879882812,62.67449951171875 L622.0731201171875,63.542327880859375 L619.86083984375,64.16207122802734 L617.6834716796875,64.47672271728516 L615.778564453125,64.50570678710938 L614.3045043945312,64.2892837524414 L613.3245849609375,63.913360595703125 L612.799560546875,63.48236083984375 L612.6051025390625,63.09425735473633 L612.58984375,62.824859619140625 L612.6716918945312,62.74383544921875 L612.852294921875,62.86652755737305 L613.205810546875,63.19593048095703 L613.8231201171875,63.6847038269043 L614.7723999023438,64.21939086914062 L616.0924072265625,64.66474151611328 L617.810791015625,64.91258239746094 L619.921630859375,64.89064025878906 L622.3604125976562,64.58634185791016 L625.0054931640625,64.01091766357422 L627.6937255859375,63.18489456176758 L630.2577514648438,62.14336395263672 L632.53955078125,60.94295120239258 L634.4083251953125,59.67959976196289 L635.77001953125,58.45695495605469 L636.57763671875,57.366722106933594 L636.8334350585938,56.491764068603516 L636.5774536132812,55.88914108276367 L635.844970703125,55.60819625854492 L634.674560546875,55.71358871459961 L633.14892578125,56.2366828918457 L631.4135131835938,57.162200927734375 L629.6809692382812,58.408935546875 L628.1990966796875,59.833465576171875 L627.1776123046875,61.28900909423828 L626.744140625,62.64889144897461 L626.9356079101562,63.80339813232422 L627.7528686523438,64.68324279785156 L629.1646728515625,65.22531127929688 L631.1193237304688,65.39830017089844 L633.5230102539062,65.21295928955078 L636.2205810546875,64.71138763427734 L639.036376953125,63.96345138549805 L641.83203125,63.064334869384766 L644.4989013671875,62.0952262878418 L646.9595947265625,61.151153564453125 L649.1088256835938,60.30373764038086 L650.8261108398438,59.61810302734375 L652.03955078125,59.13440704345703 L652.7409057617188,58.85749435424805 L653.00244140625,58.75068283081055 L652.975341796875,58.75709915161133 L652.802001953125,58.813785552978516 L652.5999145507812,58.87413024902344 L652.4501342773438,58.90852355957031 L652.373291015625,58.9027099609375 L652.3428344726562,58.862022399902344 L652.317138671875,58.78382110595703 L652.227783203125,58.688472747802734 L652.0038452148438,58.596092224121094 L651.5972900390625,58.566184997558594 L650.9667358398438,58.67192840576172 L650.08544921875,59.002235412597656 L648.9793701171875,59.60779571533203 L647.71484375,60.4948616027832 L646.4269409179688,61.595767974853516 L645.2860107421875,62.80763244628906 L644.4339599609375,64.00350952148438 L643.9547119140625,65.07304382324219 L643.8992309570312,65.92644500732422 L644.2646484375,66.49099731445312 L645.0594482421875,66.69285583496094 L646.2932739257812,66.46450805664062 L647.9383544921875,65.75914001464844 L649.91650390625,64.57865905761719 L652.1242065429688,62.99538803100586 L654.4221801757812,61.121986389160156 L656.6990966796875,59.08967208862305 L658.8850708007812,57.02531814575195 L660.911376953125,55.03322982788086 L662.675048828125,53.2204704284668 L664.081298828125,51.706520080566406 L665.075439453125,50.563880920410156 L665.648193359375,49.841407775878906 L665.8189697265625,49.57158660888672 L665.5908203125,49.77101135253906 L664.903564453125,50.47972106933594 L663.7347412109375,51.72035217285156 L662.1614990234375,53.441307067871094 L660.3358154296875,55.53776550292969 L658.4700927734375,57.86180877685547 L656.7852783203125,60.224117279052734 L655.4505615234375,62.462066650390625 L654.6196899414062,64.42787170410156 L654.393798828125,66.03540802001953 L654.8180541992188,67.25462341308594 L655.8822021484375,68.10810852050781 L657.6336669921875,68.55277252197266 L659.9766845703125,68.5781021118164 L662.7178955078125,68.19317626953125 L665.0975341796875,67.66622161865234 L666.665771484375,67.21975708007812 " fill="none" stroke="red" stroke-linecap="round" stroke-width="1" /><path d="M0,0 M350.2702331542969,105.75023651123047 L350.31182861328125,105.65088653564453 L350.38299560546875,105.59123992919922 L350.4346923828125,105.71907043457031 L350.3769226074219,106.24080657958984 L350.1080017089844,107.30650329589844 L349.5737609863281,108.97197723388672 L348.8016357421875,111.17195892333984 L347.8930358886719,113.77194213867188 L346.94854736328125,116.54798889160156 L346.0950012207031,119.28606414794922 L345.4185791015625,121.78227233886719 L344.98016357421875,123.80607604980469 L344.78924560546875,125.19131469726562 L344.8027038574219,125.88069152832031 L344.8943176269531,126.04937744140625 L344.9856872558594,125.96186065673828 M342.7743835449219,116.64002990722656 L342.73193359375,116.64705657958984 L342.87872314453125,116.67656707763672 L343.4269104003906,116.67981719970703 L344.5827331542969,116.57113647460938 L346.3810119628906,116.24424743652344 L348.7100830078125,115.65229797363281 L351.3473815917969,114.84186553955078 L354.0321044921875,113.9486312866211 L356.463623046875,113.1018295288086 L358.4251403808594,112.4125747680664 L359.78033447265625,111.9603500366211 L360.4783020019531,111.84553527832031 L360.5558776855469,112.17259979248047 L360.07135009765625,113.05720520019531 L359.0907897949219,114.52914428710938 L357.7962341308594,116.48113250732422 L356.46142578125,118.6402816772461 L355.3847961425781,120.69548034667969 L354.8164978027344,122.36479187011719 L354.84765625,123.47846984863281 L355.4278564453125,123.97576141357422 L356.4877014160156,123.87036895751953 L357.9423828125,123.15389251708984 L359.6907958984375,121.87727355957031 L361.63446044921875,120.188232421875 L363.6251525878906,118.29322814941406 L365.4884948730469,116.46052551269531 L367.07806396484375,114.93193817138672 L368.2916259765625,113.80979919433594 L369.07220458984375,113.12830352783203 L369.4261474609375,112.92169952392578 L369.3952331542969,113.22405242919922 L369.01129150390625,114.1123275756836 L368.3356628417969,115.59143829345703 L367.5096435546875,117.48809051513672 L366.73150634765625,119.50804138183594 L366.2210388183594,121.34319305419922 L366.1859436035156,122.74392700195312 L366.7156677246094,123.57734680175781 L367.8038330078125,123.8025131225586 L369.38922119140625,123.41239929199219 L371.36029052734375,122.44686889648438 L373.5709533691406,121.03282928466797 L375.8817138671875,119.37122344970703 L378.1136474609375,117.7022933959961 L380.05419921875,116.24811553955078 L381.56256103515625,115.16831970214844 L382.5762023925781,114.55066680908203 L383.0877990722656,114.43342590332031 L383.15911865234375,114.8336181640625 L382.8353271484375,115.76200866699219 L382.1395263671875,117.1363296508789 L381.2085876464844,118.75384521484375 L380.2632141113281,120.32498168945312 L379.4973449707031,121.58190155029297 L379.03594970703125,122.37134552001953 L378.865478515625,122.68179321289062 L378.88232421875,122.5563735961914 L379.0303039550781,122.0228271484375 L379.3249206542969,121.08353424072266 L379.794921875,119.81790161132812 L380.45660400390625,118.38969421386719 L381.30853271484375,116.99798583984375 L382.3218994140625,115.81405639648438 L383.4837341308594,114.93400573730469 L384.79632568359375,114.34561157226562 L386.25286865234375,114.01069641113281 L387.8026123046875,113.86250305175781 L389.386962890625,113.83243560791016 L390.92169189453125,113.85531616210938 L392.2928161621094,113.89436340332031 L393.4065246582031,113.92058563232422 L394.2088623046875,113.94020080566406 L394.68115234375,113.94341278076172 L394.887451171875,113.92799377441406 L394.9403076171875,113.89031219482422 L394.9054260253906,113.84133911132812 L394.8232116699219,113.82498931884766 L394.6820373535156,113.93338012695312 L394.43157958984375,114.25589752197266 L394.0484619140625,114.8752670288086 L393.5350341796875,115.82345581054688 L392.89837646484375,117.04534912109375 L392.187255859375,118.44178771972656 L391.4713134765625,119.86275482177734 L390.8314208984375,121.14038848876953 L390.34783935546875,122.14236450195312 L390.05426025390625,122.82319641113281 L389.9331359863281,123.17667388916016 L389.9568176269531,123.23684692382812 L390.1138610839844,122.97276306152344 L390.44866943359375,122.33232116699219 L391.0140380859375,121.28018951416016 L391.8383483886719,119.91020965576172 L392.9029541015625,118.37165069580078 L394.1497497558594,116.83867645263672 L395.50592041015625,115.43270111083984 L396.9159240722656,114.2630615234375 L398.2961120605469,113.3907241821289 L399.57208251953125,112.88184356689453 L400.68353271484375,112.76371002197266 L401.5779724121094,113.03131103515625 L402.2319030761719,113.66385650634766 L402.63543701171875,114.65787506103516 L402.7708435058594,115.96456909179688 L402.6644287109375,117.49687194824219 L402.4281311035156,119.12564849853516 L402.1936950683594,120.68672943115234 L402.1016845703125,122.03257751464844 L402.26593017578125,123.076171875 L402.72552490234375,123.76036071777344 L403.47698974609375,124.0545425415039 L404.5428161621094,123.948974609375 L405.8961181640625,123.43519592285156 L407.48846435546875,122.53931427001953 L409.25677490234375,121.34320068359375 L411.0870056152344,119.94672393798828 L412.8387756347656,118.44409942626953 L414.39996337890625,116.94966888427734 L415.6429443359375,115.56536102294922 L416.4853210449219,114.37915802001953 L416.91241455078125,113.45677947998047 L416.9418029785156,112.82205200195312 L416.61590576171875,112.47522735595703 L415.99163818359375,112.46131134033203 L415.09857177734375,112.83454895019531 L413.9903564453125,113.62500762939453 L412.7665100097656,114.7899398803711 L411.56146240234375,116.22019958496094 L410.5439147949219,117.77237701416016 L409.8581848144531,119.31169891357422 L409.6053466796875,120.72760009765625 L409.8495178222656,121.92169952392578 L410.5862731933594,122.77975463867188 L411.810791015625,123.22917938232422 L413.512451171875,123.23358154296875 L415.62957763671875,122.80390167236328 L418.0645751953125,122.00689697265625 L420.7022705078125,120.93746185302734 L423.3779296875,119.67818450927734 L425.99334716796875,118.34596252441406 L428.459716796875,117.049560546875 L430.66943359375,115.91134643554688 L432.48138427734375,115.0290756225586 L433.7990417480469,114.4534912109375 L434.5876770019531,114.15266418457031 L434.9320068359375,114.06377410888672 L434.9259033203125,114.10198974609375 L434.6440124511719,114.24251556396484 L434.079833984375,114.49281311035156 L433.22161865234375,114.88578796386719 L432.09130859375,115.43717956542969 L430.7684326171875,116.15450286865234 L429.33599853515625,117.02120208740234 L427.8948974609375,118.03736877441406 L426.5206298828125,119.185302734375 L425.2984313964844,120.4222412109375 L424.32708740234375,121.66392517089844 L423.7130432128906,122.81124877929688 L423.5330505371094,123.75248718261719 L423.82464599609375,124.3847427368164 L424.5767822265625,124.60903930664062 L425.74371337890625,124.3464584350586 L427.24761962890625,123.54658508300781 L429.0152282714844,122.23603820800781 L430.9499206542969,120.49803161621094 L432.9501647949219,118.45166015625 L434.92816162109375,116.21294403076172 L436.80181884765625,113.89798736572266 L438.4896240234375,111.61453247070312 L439.94256591796875,109.50302124023438 L441.0989990234375,107.71354675292969 L441.92999267578125,106.35546875 L442.4524230957031,105.46576690673828 L442.6986083984375,105.0541763305664 L442.6942138671875,105.12705993652344 L442.4373474121094,105.73138427734375 L441.8769836425781,106.93670654296875 L440.9928894042969,108.72673034667969 L439.8481750488281,110.98731231689453 L438.5835876464844,113.53437805175781 L437.3995666503906,116.1484146118164 L436.4845886230469,118.6198959350586 L435.97393798828125,120.77938079833984 L435.962158203125,122.4717788696289 L436.491455078125,123.60851287841797 L437.5484619140625,124.17420959472656 L439.1237487792969,124.19499206542969 L441.07977294921875,123.7803955078125 L443.2051696777344,123.09864807128906 L444.96502685546875,122.44403076171875 L446.07421875,121.9996109008789 M464.7552490234375,118.55847930908203 L464.79266357421875,118.50931549072266 L464.8714904785156,118.43106079101562 L465.01214599609375,118.32421112060547 L465.2496337890625,118.19107055664062 L465.61334228515625,117.99144744873047 L466.1417236328125,117.69815063476562 L466.83111572265625,117.27668762207031 L467.6615905761719,116.69869995117188 L468.58673095703125,115.98479461669922 L469.5455627441406,115.211669921875 L470.4400634765625,114.49126434326172 L471.17755126953125,113.93701171875 L471.68939208984375,113.59391784667969 L471.9622802734375,113.42520904541016 L472.021240234375,113.4177017211914 L471.9039306640625,113.61878204345703 L471.6169738769531,114.14453887939453 L471.13885498046875,115.10054016113281 L470.48785400390625,116.50164031982422 L469.7178955078125,118.21765899658203 L468.95989990234375,120.043212890625 L468.3828125,121.740966796875 L468.11883544921875,123.11717224121094 L468.22265625,124.05268096923828 L468.7017517089844,124.52616882324219 L469.50537109375,124.5396499633789 L470.5965881347656,124.10653686523438 L471.94683837890625,123.24163818359375 L473.51202392578125,121.99915313720703 L475.2011413574219,120.47582244873047 L476.90362548828125,118.82902526855469 L478.49554443359375,117.20372772216797 L479.86358642578125,115.74028015136719 L480.9263916015625,114.54960632324219 L481.65350341796875,113.70587158203125 L482.05572509765625,113.19304656982422 L482.1966552734375,112.97178649902344 L482.15069580078125,112.99198913574219 L481.9476318359375,113.28128814697266 L481.5872802734375,113.90247344970703 L481.0478515625,114.91653442382812 L480.362548828125,116.2715835571289 L479.6228942871094,117.8617935180664 L478.9427795410156,119.5201416015625 L478.4225769042969,121.10716247558594 L478.15802001953125,122.50318908691406 L478.17803955078125,123.63404846191406 L478.5179138183594,124.41377258300781 L479.21240234375,124.78300476074219 L480.2573547363281,124.66680145263672 L481.6168212890625,124.05345916748047 L483.24383544921875,122.9997329711914 L485.02008056640625,121.62648010253906 L486.82086181640625,120.08598327636719 L488.531494140625,118.55286407470703 L490.0164489746094,117.17082977294922 L491.16400146484375,116.05424499511719 L491.92919921875,115.29873657226562 L492.30712890625,114.96096801757812 L492.33740234375,115.07373046875 L492.0533752441406,115.6873779296875 L491.4573974609375,116.86302947998047 L490.550048828125,118.58036041259766 L489.37945556640625,120.77896118164062 L488.0394592285156,123.3204345703125 L486.6344909667969,126.01581573486328 L485.2688903808594,128.6551513671875 L484.0567626953125,131.02122497558594 L483.097900390625,132.90492248535156 L482.4503173828125,134.21485900878906 L482.12677001953125,134.9250946044922 L482.07623291015625,135.07443237304688 L482.2510986328125,134.68414306640625 L482.6612854003906,133.72537231445312 L483.3619384765625,132.20193481445312 L484.37652587890625,130.2220916748047 L485.7054138183594,127.94922637939453 L487.3003845214844,125.57398986816406 L489.0874328613281,123.25173950195312 L491.010986328125,121.09178161621094 L493.043701171875,119.18267822265625 L495.13861083984375,117.60786437988281 L497.24102783203125,116.43830871582031 L499.27313232421875,115.69542694091797 L501.1505126953125,115.36637878417969 L502.80426025390625,115.42455291748047 L504.1702880859375,115.82544708251953 L505.1672668457031,116.51902770996094 L505.70819091796875,117.46051788330078 L505.7098693847656,118.57685852050781 L505.12811279296875,119.77490234375 L503.9798583984375,120.94624328613281 L502.341796875,121.99562072753906 L500.3438720703125,122.8376235961914 L498.1770935058594,123.43160247802734 L496.06341552734375,123.7613296508789 L494.212890625,123.84342193603516 L492.78851318359375,123.71672058105469 L491.85968017578125,123.46331024169922 L491.40692138671875,123.15721893310547 L491.36724853515625,122.86956024169922 L491.68792724609375,122.61769104003906 L492.3792724609375,122.41139221191406 L493.4819641113281,122.21995544433594 L495.0272216796875,122.0162124633789 L496.98822021484375,121.75211334228516 L499.29840087890625,121.3797836303711 L501.8578186035156,120.8352279663086 L504.58135986328125,120.1041488647461 L507.3440856933594,119.18289947509766 L510.02410888671875,118.11502075195312 L512.4781494140625,116.96234130859375 L514.5958862304688,115.83480834960938 L516.27734375,114.83308410644531 L517.4893798828125,114.052001953125 L518.22998046875,113.54715728759766 L518.5504150390625,113.33708190917969 L518.5626831054688,113.4294662475586 L518.3779296875,113.8676528930664 L518.061767578125,114.6747817993164 L517.6731567382812,115.85096740722656 L517.2298583984375,117.33683013916016 L516.727294921875,119.00646209716797 L516.1928100585938,120.70419311523438 L515.6399536132812,122.29328155517578 L515.068115234375,123.63601684570312 L514.4774169921875,124.64269256591797 L513.8619995117188,125.26968383789062 L513.2288818359375,125.49939727783203 L512.6255493164062,125.34551239013672 L512.1434326171875,124.86817932128906 L511.8607177734375,124.121337890625 L511.82452392578125,123.19834899902344 L512.061767578125,122.22132873535156 L512.5582885742188,121.28138732910156 L513.3013305664062,120.45018768310547 L514.3009033203125,119.77018737792969 L515.5440673828125,119.23411560058594 L517.0049438476562,118.81719207763672 L518.6588134765625,118.48112487792969 L520.454833984375,118.1715087890625 L522.3196411132812,117.8510513305664 L524.1651000976562,117.50801086425781 L525.879150390625,117.16212463378906 L527.34033203125,116.84862518310547 L528.4447021484375,116.59803009033203 L529.170654296875,116.42184448242188 L529.5535278320312,116.31072235107422 L529.6739501953125,116.2597885131836 L529.6257934570312,116.28955078125 L529.44580078125,116.44351959228516 L529.096923828125,116.7869644165039 L528.5543212890625,117.34846496582031 L527.8369140625,118.12644958496094 L527.009521484375,119.0843734741211 L526.2027587890625,120.16233825683594 L525.5299682617188,121.27717590332031 L525.0664672851562,122.36671447753906 L524.8483276367188,123.33687591552734 L524.9198608398438,124.12100219726562 L525.3062744140625,124.64680480957031 L526.0517578125,124.85244750976562 L527.1647338867188,124.67386627197266 L528.62744140625,124.10669708251953 L530.371826171875,123.16834259033203 L532.2977905273438,121.92888641357422 L534.2760620117188,120.48151397705078 L536.2033081054688,118.93130493164062 L537.9876708984375,117.37237548828125 L539.5745239257812,115.90258026123047 L540.922607421875,114.62345886230469 L541.9667358398438,113.60173797607422 L542.6536865234375,112.88543701171875 L543.0032348632812,112.47819519042969 L543.0938720703125,112.33305358886719 L543.0517578125,112.35385131835938 L542.991943359375,112.47370910644531 L542.9596557617188,112.6093521118164 L542.9389038085938,112.7158432006836 L542.9336547851562,112.79364013671875 L542.9448852539062,112.84239959716797 L542.9639892578125,112.85565948486328 L542.9852294921875,112.85103607177734 L542.9817504882812,112.82177734375 L542.9070434570312,112.77142333984375 L542.7576904296875,112.75271606445312 L542.5213623046875,112.81743621826172 L542.15478515625,113.02740478515625 L541.6423950195312,113.4457778930664 L540.9548950195312,114.09725952148438 L540.08935546875,114.98373413085938 L539.1098022460938,116.0941162109375 L538.1414184570312,117.37796020507812 L537.3046264648438,118.7350082397461 L536.7329711914062,120.0479965209961 L536.4781494140625,121.19603729248047 L536.5435180664062,122.09062957763672 L536.9147338867188,122.67938995361328 L537.59765625,122.92770385742188 L538.5823974609375,122.78508758544922 L539.869384765625,122.21680450439453 L541.3944702148438,121.23007202148438 L543.0731201171875,119.88390350341797 L544.8114013671875,118.26555633544922 L546.53466796875,116.46183013916016 L548.2100219726562,114.5438461303711 L549.8195190429688,112.56287384033203 L551.3123168945312,110.59793853759766 L552.6295166015625,108.79367065429688 L553.6790771484375,107.29926300048828 L554.40771484375,106.20552825927734 L554.8356323242188,105.54696655273438 L555.0001220703125,105.29532623291016 L554.9320068359375,105.42376708984375 L554.6327514648438,105.98773956298828 L554.047119140625,107.05522155761719 L553.1561279296875,108.60418701171875 L552.0194702148438,110.54763793945312 L550.780517578125,112.71739959716797 L549.6234741210938,114.90979766845703 L548.7408447265625,116.96635437011719 L548.2564086914062,118.77061462402344 L548.224609375,120.22420501708984 L548.644287109375,121.279296875 L549.51513671875,121.89854431152344 L550.796875,122.06806182861328 L552.4432373046875,121.79414367675781 L554.362548828125,121.11930847167969 L556.4158325195312,120.13214111328125 L558.420166015625,118.95124053955078 L560.2092895507812,117.70582580566406 L561.6173706054688,116.52686309814453 L562.5400390625,115.49856567382812 L562.951904296875,114.6638412475586 L562.8876953125,114.04659271240234 L562.3948974609375,113.6543960571289 L561.537353515625,113.52959442138672 L560.37060546875,113.73616790771484 L558.974365234375,114.30398559570312 L557.5098876953125,115.19721984863281 L556.1728515625,116.32451629638672 L555.1451416015625,117.55513763427734 L554.5936279296875,118.79464721679688 L554.6240844726562,119.96881866455078 L555.2660522460938,121.00214385986328 L556.53955078125,121.8250961303711 L558.3902587890625,122.33140563964844 L560.7396240234375,122.39291381835938 L563.38134765625,121.99307250976562 L566.0387573242188,121.2088851928711 L568.1187133789062,120.38920593261719 L569.3711547851562,119.80439758300781 M547.7056884765625,109.37709045410156 L547.71435546875,109.32603454589844 L547.9248657226562,109.26347351074219 L548.44873046875,109.19224548339844 L549.3756713867188,109.10492706298828 L550.6068115234375,108.98310852050781 L551.9717407226562,108.81752014160156 L553.0948486328125,108.65818786621094 L553.806396484375,108.55046081542969 M585.2565307617188,120.16400909423828 L585.3133544921875,119.82699584960938 L585.3433837890625,119.28970336914062 L585.270263671875,118.65437316894531 L585.0018310546875,118.08329772949219 L584.480712890625,117.65677642822266 L583.6776123046875,117.43769836425781 L582.5829467773438,117.48591613769531 L581.2120361328125,117.8578109741211 L579.62548828125,118.60095977783203 L577.9505004882812,119.6755142211914 L576.354248046875,120.97021484375 L575.03564453125,122.30841064453125 L574.15771484375,123.53467559814453 L573.8082885742188,124.52082824707031 L573.99853515625,125.19144439697266 L574.7138671875,125.48633575439453 L575.9210815429688,125.32452392578125 L577.6038208007812,124.62998962402344 L579.701904296875,123.39395141601562 L582.1011352539062,121.66521453857422 L584.6609497070312,119.5624008178711 L587.2409057617188,117.23004913330078 L589.7356567382812,114.80529022216797 L592.0589599609375,112.41869354248047 L594.1248168945312,110.20755767822266 L595.82470703125,108.30045318603516 L597.10400390625,106.81716918945312 L597.9627075195312,105.78343200683594 L598.4456787109375,105.18418884277344 L598.5794677734375,105.0 L598.3639526367188,105.2483139038086 L597.7320556640625,106.00684356689453 L596.64794921875,107.35865783691406 L595.1658935546875,109.25682067871094 L593.4080200195312,111.57423400878906 L591.5699462890625,114.11918640136719 L589.8651733398438,116.65925598144531 L588.4832763671875,119.0031967163086 L587.5501708984375,121.00617980957031 L587.135986328125,122.55885314941406 L587.2313232421875,123.6197280883789 L587.8377685546875,124.18309783935547 L588.9259643554688,124.23211669921875 L590.4799194335938,123.78924560546875 L592.4620361328125,122.90927124023438 L594.77294921875,121.70112609863281 L597.2694091796875,120.31046295166016 L599.8343505859375,118.87895965576172 L602.3309936523438,117.50698852539062 L604.6701049804688,116.29683685302734 L606.7847290039062,115.326416015625 L608.567626953125,114.65646362304688 L609.9124755859375,114.29029846191406 L610.767578125,114.16361999511719 L611.1646118164062,114.17204284667969 L611.2286376953125,114.22920989990234 L611.0908203125,114.2853775024414 L610.8123779296875,114.3480224609375 L610.361328125,114.43009948730469 L609.6890869140625,114.54157257080078 L608.795654296875,114.70621490478516 L607.7073974609375,114.9638900756836 L606.4580688476562,115.387939453125 L605.0817260742188,116.0730209350586 L603.6155395507812,117.0664291381836 L602.1654052734375,118.34099578857422 L600.9000244140625,119.7944107055664 L599.9923095703125,121.26948547363281 L599.5670166015625,122.60800170898438 L599.6737060546875,123.69475555419922 L600.280517578125,124.44807434082031 L601.3111572265625,124.8109130859375 L602.6796875,124.74661254882812 L604.2918701171875,124.25799560546875 L606.031005859375,123.38665008544922 L607.768310546875,122.24490356445312 L609.346923828125,120.96085357666016 L610.638427734375,119.64363861083984 L611.5761108398438,118.3869857788086 L612.1624755859375,117.28347778320312 L612.4591064453125,116.3963394165039 L612.5582275390625,115.78449249267578 L612.5252685546875,115.44510650634766 L612.4486694335938,115.3146743774414 L612.3956909179688,115.33965301513672 L612.4410400390625,115.49020385742188 L612.656982421875,115.73844909667969 L613.1112670898438,116.0372085571289 L613.84814453125,116.29484558105469 L614.9091186523438,116.39469909667969 L616.260009765625,116.2767333984375 L617.8262939453125,115.94966125488281 L619.47216796875,115.48619842529297 L621.036865234375,114.97875213623047 L622.366943359375,114.51626586914062 L623.3714599609375,114.14983367919922 L623.9964599609375,113.91354370117188 L624.2529296875,113.84394073486328 L624.1683349609375,113.99539184570312 L623.73583984375,114.44109344482422 L622.9292602539062,115.23368072509766 L621.7862548828125,116.35507202148438 L620.4019165039062,117.72872924804688 L618.9443359375,119.23088836669922 L617.619140625,120.70699310302734 L616.572265625,122.02417755126953 L615.8578491210938,123.07078552246094 L615.4912719726562,123.76063537597656 L615.4681396484375,124.05549621582031 L615.794189453125,123.94528198242188 L616.496826171875,123.427978515625 L617.5999755859375,122.55152893066406 L619.0567626953125,121.40621948242188 L620.7774047851562,120.11534881591797 L622.6138916015625,118.79816436767578 L624.4189453125,117.57178497314453 L626.01904296875,116.51826477050781 L627.2996215820312,115.70142364501953 L628.189453125,115.15315246582031 L628.68701171875,114.91587829589844 L628.8223876953125,115.01769256591797 L628.6812133789062,115.52686309814453 L628.308349609375,116.4825439453125 L627.772705078125,117.8361587524414 L627.18017578125,119.42045593261719 L626.6663818359375,121.03268432617188 L626.3739624023438,122.46298217773438 L626.408935546875,123.57066345214844 L626.8138427734375,124.28164672851562 L627.5604248046875,124.5448226928711 L628.605224609375,124.31139373779297 L629.88037109375,123.5919189453125 L631.2981567382812,122.45645141601562 L632.7249755859375,121.0228500366211 L634.0265502929688,119.46601867675781 L635.070556640625,117.96871948242188 L635.8009033203125,116.67389678955078 L636.2169799804688,115.68994140625 L636.38427734375,115.05431365966797 L636.3955688476562,114.7373275756836 L636.3468627929688,114.66307830810547 L636.3678588867188,114.75704193115234 L636.5921630859375,114.93278503417969 L637.1246337890625,115.09650421142578 L638.0565185546875,115.14380645751953 L639.3997802734375,115.01423645019531 L641.0802612304688,114.6854476928711 L642.983642578125,114.22742462158203 L644.8954467773438,113.74297332763672 L646.5858764648438,113.32579040527344 L647.9042358398438,113.04354095458984 L648.7547607421875,112.96316528320312 L649.126220703125,113.13009643554688 L649.0703125,113.61459350585938 L648.5965576171875,114.4592514038086 L647.7186279296875,115.6453628540039 L646.5143432617188,117.10623168945312 L645.0789794921875,118.73121643066406 L643.572021484375,120.3458480834961 L642.2122802734375,121.78221130371094 L641.156494140625,122.90668487548828 L640.4771728515625,123.63383483886719 L640.191650390625,123.94658660888672 L640.2377319335938,123.85144805908203 L640.5994873046875,123.33749389648438 L641.3326416015625,122.399169921875 L642.4820556640625,121.10670471191406 L644.0476684570312,119.59154510498047 L645.9866943359375,118.0184555053711 L648.194091796875,116.53097534179688 L650.5650634765625,115.2419662475586 L652.993408203125,114.20899200439453 L655.341064453125,113.49761962890625 L657.4803466796875,113.14826965332031 L659.297607421875,113.17366027832031 L660.7191772460938,113.54951477050781 L661.716064453125,114.24958038330078 L662.2920532226562,115.21558380126953 L662.4718017578125,116.39453887939453 L662.3418579101562,117.70880126953125 L662.0050048828125,119.0610580444336 L661.609619140625,120.33174133300781 L661.30908203125,121.43531799316406 L661.234130859375,122.31470489501953 L661.4954833984375,122.96016693115234 L662.169921875,123.38126373291016 L663.3151245117188,123.5804443359375 L664.9356079101562,123.54450988769531 L666.9764404296875,123.28646850585938 L669.3309326171875,122.83322143554688 L671.8382568359375,122.24822235107422 L674.341796875,121.552978515625 L676.701416015625,120.76497650146484 L678.7637939453125,119.90586853027344 L680.2443237304688,119.17545318603516 L681.083740234375,118.6873550415039 " fill="none" stroke="green" stroke-linecap="round" stroke-width="2" /></svg>