<?xml version="1.0" encoding="utf-8" ?>
<svg baseProfile="full" height="100%" version="1.1" viewBox="0,0,1000,240" width="100%" xmlns="http://www.w3.org/2000/svg" xmlns:ev="http://www.w3.org/2001/xml-events" xmlns:xlink="http://www.w3.org/1999/xlink"><defs /><rect fill="white" height="240" width="1000" x="0" y="0" /><path d="M0,0 M387.2122802734375,65.88123321533203 L387.2008361816406,65.82627868652344 L387.19091796875,65.7477798461914 L387.19122314453125,65.66641998291016 L387.1973876953125,65.60775756835938 L387.1966247558594,65.55928039550781 L387.2029724121094,65.53792572021484 L387.20806884765625,65.5296630859375 M413.6498718261719,72.32267761230469 L413.7818603515625,71.84699249267578 L414.1390686035156,70.9022445678711 L414.7934265136719,69.46965026855469 L415.745361328125,67.6662826538086 L416.9143371582031,65.57432556152344 L418.22723388671875,63.283416748046875 L419.6074523925781,60.84437942504883 L421.0418701171875,58.30179214477539 L422.5283203125,55.73881530761719 L424.06634521484375,53.24457931518555 L425.60186767578125,50.92529296875 L427.05999755859375,48.89244842529297 L428.3129577636719,47.25347900390625 L429.25775146484375,46.051387786865234 L429.86102294921875,45.30204772949219 L430.16461181640625,45.0 L430.24896240234375,45.144134521484375 L430.18243408203125,45.78218078613281 L429.9750671386719,46.994422912597656 L429.6139831542969,48.798397064208984 L429.1033935546875,51.12885284423828 L428.4716796875,53.851951599121094 L427.7818908691406,56.768333435058594 L427.1023864746094,59.684452056884766 L426.5078125,62.42021560668945 L426.0777587890625,64.81670379638672 L425.84027099609375,66.74307250976562 L425.7764892578125,68.12786865234375 L425.8375549316406,68.9333267211914 L425.94586181640625,69.13529968261719 L426.0671081542969,68.72003936767578 L426.17156982421875,67.68159484863281 L426.1954650878906,66.0893783569336 L426.0637512207031,64.10894775390625 L425.7185974121094,61.99559783935547 L425.1121826171875,59.99342727661133 L424.2790222167969,58.30793762207031 L423.29315185546875,57.040462493896484 L422.2559814453125,56.24128723144531 L421.28106689453125,55.9300537109375 L420.4798889160156,56.11802673339844 L419.9354553222656,56.76778030395508 L419.72711181640625,57.77980422973633 L419.94158935546875,58.969688415527344 L420.65252685546875,60.10004425048828 L421.9080505371094,60.93575668334961 L423.6900329589844,61.286895751953125 L425.93206787109375,61.065059661865234 L428.50775146484375,60.28995895385742 L431.2510986328125,59.07886505126953 L433.9757080078125,57.640777587890625 L436.47906494140625,56.222320556640625 L438.566162109375,55.01741027832031 L440.1238098144531,54.168609619140625 L441.1003112792969,53.77560043334961 L441.48907470703125,53.899784088134766 L441.3394470214844,54.618412017822266 L440.7055358886719,55.960025787353516 L439.7050476074219,57.80946350097656 L438.5492248535156,59.90910339355469 L437.4820861816406,61.93117141723633 L436.69830322265625,63.58287048339844 L436.3023376464844,64.69659423828125 L436.2797546386719,65.201171875 L436.6114501953125,65.0858154296875 L437.3146667480469,64.3552474975586 L438.4283142089844,63.05632019042969 L439.95635986328125,61.35816192626953 L441.8273010253906,59.50592041015625 L443.8804016113281,57.74595260620117 L445.955078125,56.280296325683594 L447.90185546875,55.22893524169922 L449.616943359375,54.6290283203125 L451.02459716796875,54.52499008178711 L452.0489501953125,54.93915939331055 L452.61669921875,55.865684509277344 L452.70770263671875,57.250648498535156 L452.37725830078125,58.974876403808594 L451.7873840332031,60.816959381103516 L451.15374755859375,62.54602813720703 L450.67938232421875,63.9512939453125 L450.51934814453125,64.8821029663086 L450.76123046875,65.26090240478516 L451.4617919921875,65.07148742675781 L452.65283203125,64.32255554199219 L454.30657958984375,63.11423873901367 L456.3564453125,61.624385833740234 L458.6999206542969,60.06528091430664 L461.2064208984375,58.63423156738281 L463.773193359375,57.47764205932617 L466.31103515625,56.6658935546875 L468.7203369140625,56.21302032470703 L470.9071350097656,56.07865905761719 L472.76983642578125,56.170806884765625 L474.20892333984375,56.37055206298828 L475.1952209472656,56.57159423828125 L475.7451477050781,56.710289001464844 L475.9076232910156,56.749935150146484 L475.71649169921875,56.679466247558594 L475.1815185546875,56.523189544677734 L474.2841796875,56.34800338745117 L473.0378723144531,56.258323669433594 L471.4891357421875,56.37527084350586 L469.7347412109375,56.80085372924805 L467.89691162109375,57.58173370361328 L466.1400146484375,58.72806930541992 L464.6360778808594,60.170650482177734 L463.5276184082031,61.76031494140625 L462.92816162109375,63.30134582519531 L462.8940734863281,64.58675384521484 L463.4295349121094,65.41697692871094 L464.50946044921875,65.67089080810547 L466.0805969238281,65.26860046386719 L468.0360107421875,64.19728088378906 L470.26171875,62.53590393066406 L472.6028747558594,60.41389083862305 L474.91937255859375,57.99856185913086 L477.088623046875,55.47745132446289 L479.02142333984375,53.01136779785156 L480.64569091796875,50.76802444458008 L481.9137268066406,48.896751403808594 L482.7978515625,47.476036071777344 L483.3253173828125,46.568153381347656 L483.52386474609375,46.20762252807617 L483.43402099609375,46.42375946044922 L483.05767822265625,47.282249450683594 L482.3545227050781,48.81212615966797 L481.3522644042969,50.94114685058594 L480.1498718261719,53.531551361083984 L478.89599609375,56.37010955810547 L477.8096923828125,59.20970153808594 L477.0755615234375,61.81715393066406 L476.8031311035156,63.98585510253906 L477.1310119628906,65.56280517578125 L478.1268310546875,66.48255157470703 L479.91290283203125,66.6784439086914 L482.4384460449219,66.18533325195312 L485.4586486816406,65.13221740722656 L488.0906982421875,64.01093292236328 L489.82666015625,63.178794860839844 M508.471435546875,47.2044677734375 L508.7274169921875,47.04164123535156 L509.1338195800781,46.77783966064453 L509.6072998046875,46.48107147216797 L509.99224853515625,46.285369873046875 L510.208251953125,46.309444427490234 L510.2341003417969,46.67608642578125 L510.0605163574219,47.47441864013672 L509.6907653808594,48.73339080810547 L509.11798095703125,50.445106506347656 L508.3381042480469,52.552284240722656 L507.37750244140625,54.96434783935547 L506.30145263671875,57.55978775024414 L505.2037353515625,60.20204162597656 L504.1993408203125,62.720619201660156 L503.376953125,64.96424865722656 L502.8062744140625,66.74243927001953 L502.50262451171875,67.91311645507812 L502.4295654296875,68.42085266113281 L502.4833068847656,68.47122955322266 L502.5688781738281,68.3140640258789 M510.6298522949219,58.47920608520508 L510.9575500488281,58.14090347290039 L511.61785888671875,57.454490661621094 L512.6653442382812,56.3846549987793 L514.0743408203125,54.98110580444336 L515.76025390625,53.357948303222656 L517.53515625,51.696693420410156 L518.9761962890625,50.37202835083008 L519.8634033203125,49.5665168762207 M528.3778076171875,57.9205207824707 L528.0509033203125,57.73968505859375 L527.39990234375,57.56471252441406 L526.3841552734375,57.55541229248047 L525.0702514648438,57.90198516845703 L523.510009765625,58.66322708129883 L521.8704833984375,59.82273864746094 L520.3707885742188,61.240238189697266 L519.2388916015625,62.739646911621094 L518.6727905273438,64.13957977294922 L518.7627563476562,65.25473022460938 L519.4688110351562,65.94673156738281 L520.70751953125,66.12764739990234 L522.352294921875,65.73583221435547 L524.2679443359375,64.7850112915039 L526.3106689453125,63.362850189208984 L528.3177490234375,61.555076599121094 L530.1524047851562,59.49365234375 L531.7191162109375,57.31471252441406 L532.9854736328125,55.16635513305664 L533.9774780273438,53.23066329956055 L534.713623046875,51.66324996948242 L535.1997680664062,50.537235260009766 L535.4398193359375,49.909236907958984 L535.4159545898438,49.80096435546875 L535.1036376953125,50.23410415649414 L534.5050048828125,51.25836944580078 L533.6630859375,52.86874771118164 L532.6749267578125,54.95146942138672 L531.6937255859375,57.32444381713867 L530.902587890625,59.73971939086914 L530.43701171875,61.94755935668945 L530.4847412109375,63.719268798828125 L531.1296997070312,64.9176025390625 L532.320556640625,65.50468444824219 L533.561279296875,65.653076171875 L534.4859619140625,65.58613586425781 M551.679443359375,66.34239196777344 L552.1771240234375,66.08744049072266 L553.1456298828125,65.52965545654297 L554.598388671875,64.58757019042969 L556.4212646484375,63.27225875854492 L558.5172119140625,61.618011474609375 L560.7530517578125,59.68372344970703 L562.98876953125,57.55205154418945 L565.07958984375,55.339569091796875 L566.8629760742188,53.17852783203125 L568.2388916015625,51.238189697265625 L569.1324462890625,49.65778350830078 L569.5181884765625,48.52790832519531 L569.4022216796875,47.90050506591797 L568.836669921875,47.8171501159668 L567.8529052734375,48.32966232299805 L566.514404296875,49.50002670288086 L564.9202880859375,51.304779052734375 L563.1998901367188,53.628623962402344 L561.529541015625,56.26396942138672 L560.123046875,58.9725341796875 L559.1503295898438,61.52434539794922 L558.728759765625,63.73884963989258 L558.9098510742188,65.46226501464844 L559.6800537109375,66.59464263916016 L561.0091552734375,67.06873321533203 L562.8392944335938,66.87619018554688 L565.0784912109375,66.07481384277344 L567.5770263671875,64.7947769165039 L570.1240234375,63.2173957824707 L572.520751953125,61.576927185058594 L574.587158203125,60.08583450317383 L576.1865844726562,58.90150451660156 L577.2825927734375,58.09453582763672 L577.8935546875,57.66954803466797 L578.0625,57.611053466796875 L577.8721923828125,57.942447662353516 L577.3514404296875,58.702510833740234 L576.5526123046875,59.8929328918457 L575.6280517578125,61.39440155029297 L574.7623291015625,62.99500274658203 L574.1543579101562,64.46849822998047 L573.9536743164062,65.63427734375 L574.20166015625,66.379638671875 L574.9027099609375,66.65866088867188 L576.0748901367188,66.44588470458984 L577.68212890625,65.72721099853516 L579.6617431640625,64.54983520507812 L581.8948974609375,62.993186950683594 L584.2412719726562,61.15243911743164 L586.5595703125,59.13396453857422 L588.7553100585938,57.03668975830078 L590.736328125,54.941158294677734 L592.427490234375,52.951271057128906 L593.7681274414062,51.184383392333984 L594.7222900390625,49.75344467163086 L595.3047485351562,48.73109817504883 L595.5782470703125,48.131168365478516 L595.6057739257812,47.93391799926758 L595.4175415039062,48.115543365478516 L595.0026245117188,48.705284118652344 L594.3108520507812,49.752620697021484 L593.35791015625,51.27210235595703 L592.1932983398438,53.20829772949219 L590.904541015625,55.45612335205078 L589.5850830078125,57.84556198120117 L588.3255615234375,60.2075309753418 L587.1865234375,62.36090850830078 L586.24365234375,64.12862396240234 L585.5494384765625,65.41309356689453 L585.1214599609375,66.19300842285156 L584.940185546875,66.48625946044922 L584.9813842773438,66.32777404785156 L585.2285766601562,65.72395324707031 L585.6962280273438,64.67012023925781 L586.4266357421875,63.270259857177734 L587.4442138671875,61.672569274902344 L588.757568359375,60.05764389038086 L590.342041015625,58.57422637939453 L592.149658203125,57.317970275878906 L594.1005249023438,56.3242073059082 L596.0926513671875,55.646915435791016 L598.009521484375,55.30231857299805 L599.7293701171875,55.2716178894043 L601.1419067382812,55.482852935791016 L602.1749877929688,55.84849166870117 L602.77587890625,56.273319244384766 L602.91796875,56.71100616455078 L602.5904541015625,57.142730712890625 L601.787109375,57.5709114074707 L600.546630859375,58.006256103515625 L598.9623413085938,58.4572868347168 L597.1832275390625,58.91802978515625 L595.4002075195312,59.38283920288086 L593.7921142578125,59.84464645385742 L592.49853515625,60.31887435913086 L591.6004028320312,60.839881896972656 L591.1263427734375,61.445274353027344 L591.0850830078125,62.148677825927734 L591.489990234375,62.93083953857422 L592.35009765625,63.739341735839844 L593.6656494140625,64.50233459472656 L595.3997802734375,65.1302261352539 L597.4904174804688,65.5495834350586 L599.847900390625,65.69922637939453 L602.361328125,65.53760528564453 L604.8961791992188,65.0534439086914 L607.3038330078125,64.27144622802734 L609.4188842773438,63.24052810668945 L611.1115112304688,62.06108856201172 L612.2965698242188,60.854576110839844 L612.9500122070312,59.73176574707031 L613.0897216796875,58.78516387939453 L612.7513427734375,58.104427337646484 L611.95751953125,57.766944885253906 L610.775390625,57.85315704345703 L609.3274536132812,58.42105484008789 L607.8240356445312,59.45301055908203 L606.5335083007812,60.85759353637695 L605.7274780273438,62.479652404785156 L605.6024169921875,64.12061309814453 L606.2847900390625,65.58306121826172 L607.779541015625,66.72513580322266 L609.965087890625,67.46887969970703 L612.5673828125,67.75489807128906 L615.18896484375,67.59034729003906 L617.41455078125,67.03649139404297 L618.90185546875,66.39201354980469 L619.6375732421875,65.88813781738281 " fill="none" stroke="red" stroke-linecap="round" stroke-width="1" /><path d="M0,0 M375.91693115234375,125.55758666992188 L375.9212951660156,125.548828125 L375.9678955078125,125.52304077148438 L376.13116455078125,125.4334487915039 L376.5122985839844,125.17717742919922 L377.24566650390625,124.6384048461914 L378.39984130859375,123.70477294921875 L380.01861572265625,122.33719635009766 L382.0748596191406,120.55743408203125 L384.5072937011719,118.44171905517578 L387.2065124511719,116.08573913574219 L390.0544128417969,113.63768005371094 L392.85888671875,111.2550277709961 L395.42376708984375,109.15372467041016 L397.5194396972656,107.49626922607422 L399.0142517089844,106.35172271728516 L399.8790588378906,105.73434448242188 L400.18463134765625,105.63835906982422 L400.0331726074219,106.10528564453125 L399.4808654785156,107.28055572509766 L398.5030517578125,109.25470733642578 L397.1307678222656,111.94304656982422 L395.4866943359375,115.13311004638672 L393.768310546875,118.48596954345703 L392.2107849121094,121.65203094482422 L390.9844055175781,124.3509521484375 L390.1448974609375,126.41535186767578 L389.66259765625,127.76639556884766 L389.4599609375,128.3369903564453 L389.42572021484375,128.1681365966797 L389.4618225097656,127.3776626586914 L389.5065612792969,126.4244155883789 L389.5334167480469,125.67546844482422 M389.27899169921875,121.65836334228516 L389.31109619140625,121.7095718383789 L389.4747314453125,121.8547134399414 L389.9249572753906,122.1026611328125 L390.812744140625,122.37432098388672 L392.2427978515625,122.52064514160156 L394.2405090332031,122.41363525390625 L396.71697998046875,121.99915313720703 L399.4994812011719,121.3056411743164 L402.3921813964844,120.44635772705078 L405.1448974609375,119.54842376708984 L407.495361328125,118.73457336425781 L409.2650146484375,118.09222412109375 L410.35223388671875,117.64930725097656 L410.75152587890625,117.4105453491211 L410.5504455566406,117.3984146118164 L409.8219909667969,117.66935729980469 L408.6115417480469,118.32032012939453 L407.0261535644531,119.39098358154297 L405.23931884765625,120.82381439208984 L403.5061950683594,122.48377990722656 L402.1080322265625,124.17292022705078 L401.2577209472656,125.69392395019531 L401.034912109375,126.89820861816406 L401.442138671875,127.6773681640625 L402.4114990234375,127.96065521240234 L403.845947265625,127.7203598022461 L405.6098327636719,126.96546173095703 L407.5382080078125,125.76426696777344 L409.3983154296875,124.22493743896484 L411.0077209472656,122.51581573486328 L412.19305419921875,120.81343841552734 L412.84893798828125,119.29754638671875 L413.0106201171875,118.10838317871094 L412.8197937011719,117.32383728027344 L412.448974609375,116.92855834960938 L412.1366882324219,116.86090087890625 L412.0870361328125,117.00397491455078 L412.46173095703125,117.22398376464844 L413.4463806152344,117.3660659790039 L415.13116455078125,117.28543090820312 L417.4433288574219,116.87739562988281 L420.18719482421875,116.14598846435547 L423.0833740234375,115.16748809814453 L425.82855224609375,114.06340789794922 L428.19586181640625,112.95886993408203 L430.0126037597656,111.94641876220703 L431.2069091796875,111.10151672363281 L431.8309326171875,110.49967193603516 L432.0420227050781,110.15715789794922 L432.04986572265625,110.03937530517578 L432.0105285644531,110.05431365966797 L431.98779296875,110.10359954833984 M454.7842102050781,110.70639038085938 L454.8785705566406,110.62319946289062 L454.97515869140625,110.55084228515625 L455.0005187988281,110.61422729492188 L454.8449401855469,110.99246215820312 L454.4175109863281,111.86031341552734 L453.6810607910156,113.33306121826172 L452.63043212890625,115.4371566772461 L451.3038635253906,118.08648681640625 L449.81329345703125,121.07234954833984 L448.3189392089844,124.0867919921875 L446.9941711425781,126.81861877441406 L446.044921875,128.95082092285156 L445.56494140625,130.28469848632812 L445.5379333496094,130.797119140625 L445.74371337890625,130.7775115966797 L445.97442626953125,130.55001831054688 M445.13043212890625,121.08818817138672 L445.10089111328125,121.13727569580078 L445.2543029785156,121.23566436767578 L445.80352783203125,121.35111999511719 L446.95220947265625,121.39588165283203 L448.7585754394531,121.25560760498047 L451.17437744140625,120.86834716796875 L454.0551452636719,120.24854278564453 L457.213134765625,119.48400115966797 L460.40972900390625,118.68218231201172 L463.3755187988281,117.95354461669922 L465.82818603515625,117.36347961425781 L467.59197998046875,116.9280014038086 L468.6251220703125,116.63272094726562 L469.0001525878906,116.45423126220703 L468.80633544921875,116.37937927246094 L468.0726318359375,116.4888687133789 L466.78179931640625,116.90533447265625 L465.0044860839844,117.72737884521484 L462.9107666015625,118.99372100830078 L460.75994873046875,120.65374755859375 L458.82733154296875,122.55023956298828 L457.31463623046875,124.4813003540039 L456.34515380859375,126.24479675292969 L455.9769287109375,127.6316146850586 L456.1968994140625,128.49366760253906 L456.9496765136719,128.7584228515625 L458.15252685546875,128.38697814941406 L459.69354248046875,127.39773559570312 L461.4517822265625,125.9120101928711 L463.26409912109375,124.09400177001953 L464.953369140625,122.20008087158203 L466.33935546875,120.50647735595703 L467.3183898925781,119.18990325927734 L467.85931396484375,118.33843231201172 L467.99609375,117.99694061279297 L467.7774658203125,118.16495513916016 L467.27923583984375,118.90223693847656 L466.56951904296875,120.22511291503906 L465.81524658203125,121.98532104492188 L465.2156982421875,123.91947174072266 L464.96051025390625,125.73175048828125 L465.177001953125,127.13970947265625 L465.9383850097656,127.9904556274414 L467.22808837890625,128.18145751953125 L469.0137634277344,127.63650512695312 L471.2062072753906,126.3489761352539 L473.6718444824219,124.40968322753906 L476.242919921875,121.96886444091797 L478.7681884765625,119.22420501708984 L481.127197265625,116.35052490234375 L483.2496337890625,113.52668762207031 L485.07489013671875,110.9149169921875 L486.54351806640625,108.68914031982422 L487.6101989746094,106.97753143310547 L488.281005859375,105.8129653930664 L488.5910339355469,105.1571273803711 L488.59100341796875,105.0 L488.2930908203125,105.36962127685547 L487.66046142578125,106.38677215576172 L486.6612243652344,108.14593505859375 L485.3431091308594,110.60003662109375 L483.78924560546875,113.54505157470703 L482.13592529296875,116.70092010498047 L480.52716064453125,119.76747131347656 L479.0950927734375,122.46459197998047 L477.9410095214844,124.61353302001953 L477.13922119140625,126.12538146972656 L476.7017517089844,126.95619201660156 L476.6161193847656,127.10301971435547 L476.8846435546875,126.6001205444336 L477.5340881347656,125.44913482666016 L478.5853271484375,123.78681945800781 L480.0014343261719,121.8533935546875 L481.69500732421875,119.93470001220703 L483.5318603515625,118.26793670654297 L485.397216796875,117.02645874023438 L487.173095703125,116.25237274169922 L488.76031494140625,115.93251037597656 L490.048095703125,115.99861145019531 L490.94921875,116.38087463378906 L491.3774108886719,116.98241424560547 L491.28369140625,117.72663879394531 L490.64263916015625,118.54862213134766 L489.5124206542969,119.36760711669922 L488.02520751953125,120.09050750732422 L486.42755126953125,120.65471649169922 L484.97271728515625,121.01097106933594 L483.85260009765625,121.15796661376953 L483.1532897949219,121.17147064208984 L482.8407897949219,121.14573669433594 L482.7828369140625,121.1820068359375 L482.87969970703125,121.37833404541016 L483.053955078125,121.7891845703125 L483.2696228027344,122.42424011230469 L483.544921875,123.27318572998047 L483.91400146484375,124.27002716064453 L484.42626953125,125.32208251953125 L485.1446838378906,126.31825256347656 L486.1336669921875,127.1452865600586 L487.43414306640625,127.68782806396484 L489.053466796875,127.85336303710938 L490.95904541015625,127.58657836914062 L493.09600830078125,126.8968734741211 L495.34259033203125,125.84719848632812 L497.5552673339844,124.54429626464844 L499.56561279296875,123.10671997070312 L501.2012939453125,121.65750885009766 L502.33721923828125,120.31126403808594 L502.9369812011719,119.16445922851562 L503.0010681152344,118.29960632324219 L502.57635498046875,117.79130554199219 L501.7160339355469,117.72371673583984 L500.4991455078125,118.19425201416016 L499.062744140625,119.23541259765625 L497.61993408203125,120.76689147949219 L496.4146728515625,122.6064224243164 L495.68682861328125,124.51060485839844 L495.61578369140625,126.24604034423828 L496.2829895019531,127.66559600830078 L497.8016357421875,128.61825561523438 L500.0924987792969,129.02349853515625 L502.928955078125,128.89175415039062 L505.4584045410156,128.50253295898438 L507.1561279296875,128.1114959716797 M530.2864379882812,123.11946105957031 L530.3245849609375,123.0191421508789 L530.3333740234375,122.81268310546875 L530.24853515625,122.49305725097656 L529.9981689453125,122.09319305419922 L529.55322265625,121.67039489746094 L528.9041137695312,121.29602813720703 L528.0514526367188,121.04926300048828 L526.9908447265625,121.00714874267578 L525.7276611328125,121.23865509033203 L524.2655029296875,121.79230499267578 L522.6781005859375,122.71890258789062 L521.0716552734375,123.98616790771484 L519.6192626953125,125.5038070678711 L518.484130859375,127.10136413574219 L517.813720703125,128.5775146484375 L517.6671752929688,129.75448608398438 L518.0791015625,130.53640747070312 L519.0099487304688,130.84445190429688 L520.41162109375,130.65821838378906 L522.192626953125,129.98309326171875 L524.23974609375,128.87277221679688 L526.406982421875,127.4358139038086 L528.5394897460938,125.8067855834961 L530.4736328125,124.12330627441406 L532.0675048828125,122.55939483642578 L533.2315063476562,121.26262664794922 L533.9707641601562,120.33174896240234 L534.3349609375,119.81576538085938 L534.3767700195312,119.71836853027344 L534.1263427734375,120.0611572265625 L533.5880737304688,120.91602325439453 L532.7991943359375,122.28968811035156 L531.9082641601562,124.03486633300781 L531.1123657226562,125.88863372802734 L530.6199951171875,127.54847717285156 L530.599609375,128.78009033203125 L531.14697265625,129.46511840820312 L532.27392578125,129.5739288330078 L533.932373046875,129.12008666992188 L536.0198974609375,128.19229125976562 L538.3637084960938,126.92459106445312 L540.768310546875,125.49311065673828 L543.0584716796875,124.05972290039062 L545.1094970703125,122.75211334228516 L546.86328125,121.6570053100586 L548.334228515625,120.83433532714844 L549.5255737304688,120.28350067138672 L550.4457397460938,119.99695587158203 L551.1041870117188,119.94471740722656 L551.523193359375,120.08758544921875 L551.7376708984375,120.3774642944336 L551.803955078125,120.7742691040039 L551.7356567382812,121.23021697998047 L551.5350341796875,121.75340270996094 L551.1748657226562,122.3680419921875 L550.6152954101562,123.10140228271484 L549.8505249023438,123.92744445800781 L548.9700927734375,124.77526092529297 L548.1062622070312,125.53152465820312 L547.4208984375,126.1061782836914 L547.0158081054688,126.45429992675781 L546.8672485351562,126.60114288330078 L546.8872680664062,126.62083435058594 L546.983642578125,126.5909652709961 L547.1026611328125,126.55298614501953 L547.2548828125,126.47171783447266 L547.5042114257812,126.27586364746094 L547.9066162109375,125.87903594970703 L548.53076171875,125.24502563476562 L549.4027099609375,124.37467193603516 L550.54052734375,123.33255004882812 L551.9246826171875,122.19068908691406 L553.501953125,121.05397033691406 L555.166015625,120.02339172363281 L556.7940673828125,119.21391296386719 L558.222412109375,118.70276641845703 L559.3475341796875,118.55886840820312 L560.0989990234375,118.81807708740234 L560.4459228515625,119.50880432128906 L560.3875732421875,120.61663818359375 L559.9691162109375,122.09304809570312 L559.260498046875,123.79402923583984 L558.4139404296875,125.50901794433594 L557.596435546875,127.00814056396484 L556.9522705078125,128.140380859375 L556.5578002929688,128.8428497314453 L556.4146728515625,129.1314239501953 L556.4824829101562,129.03440856933594 L556.7509765625,128.54502868652344 L557.2560424804688,127.66161346435547 L558.0546264648438,126.45954132080078 L559.1688232421875,125.07598876953125 L560.548095703125,123.66464233398438 L562.098388671875,122.38394165039062 L563.6970825195312,121.33251953125 L565.2477416992188,120.59085845947266 L566.6611328125,120.19740295410156 L567.8677368164062,120.14911651611328 L568.8150634765625,120.41316223144531 L569.4983520507812,120.9646987915039 L569.9066162109375,121.77748107910156 L570.062744140625,122.8402099609375 L569.9867553710938,124.0879135131836 L569.725830078125,125.41642761230469 L569.3683471679688,126.69633483886719 L569.026123046875,127.78866577148438 L568.77294921875,128.61679077148438 L568.65234375,129.15147399902344 L568.66748046875,129.3778076171875 L568.7938842773438,129.2859344482422 L569.0512084960938,128.85643005371094 L569.4744873046875,128.0615997314453 L570.1038818359375,126.95948028564453 L570.95751953125,125.64757537841797 L572.0301513671875,124.24535369873047 L573.2556762695312,122.87434387207031 L574.5792236328125,121.65087890625 L575.9193115234375,120.65235137939453 L577.1915283203125,119.94401550292969 L578.3211059570312,119.5595932006836 L579.248046875,119.49530792236328 L579.920166015625,119.74014282226562 L580.3294067382812,120.3171615600586 L580.455322265625,121.23667907714844 L580.2938232421875,122.48762512207031 L579.8714599609375,124.01779174804688 L579.2431640625,125.69568634033203 L578.519287109375,127.33258056640625 L577.8504638671875,128.7590789794922 L577.3329467773438,129.8515625 L577.0341186523438,130.55972290039062 L576.9696655273438,130.87245178222656 L577.13623046875,130.77398681640625 L577.556640625,130.22067260742188 L578.2758178710938,129.2039337158203 L579.2996215820312,127.78961181640625 L580.6283569335938,126.10926055908203 L582.2265014648438,124.3117446899414 L584.0316162109375,122.5298843383789 L585.9520263671875,120.87060546875 L587.8699951171875,119.44142150878906 L589.6539916992188,118.3507080078125 L591.1857299804688,117.66763305664062 L592.3867797851562,117.4113998413086 L593.2103271484375,117.55802154541016 L593.641357421875,118.08377838134766 L593.6739501953125,118.97486877441406 L593.3361206054688,120.20376586914062 L592.6753540039062,121.69302368164062 L591.810791015625,123.32093048095703 L590.8927001953125,124.90815734863281 L590.100341796875,126.301513671875 L589.5593872070312,127.40190124511719 L589.3116455078125,128.16665649414062 L589.3248291015625,128.59939575195312 L589.574951171875,128.71920776367188 L590.0464477539062,128.50099182128906 L590.76611328125,127.92996978759766 L591.7329711914062,127.01663208007812 L592.9049682617188,125.83267974853516 L594.2147827148438,124.5003662109375 L595.5847778320312,123.15660858154297 L596.93994140625,121.92788696289062 L598.2132568359375,120.91267395019531 L599.2998657226562,120.16741180419922 L600.134033203125,119.71566009521484 L600.695068359375,119.55348205566406 L600.983154296875,119.66065216064453 L601.045654296875,120.04830932617188 L600.9139404296875,120.73681640625 L600.597412109375,121.72929382324219 L600.1265869140625,122.96344757080078 L599.5938720703125,124.33647155761719 L599.095458984375,125.68834686279297 L598.74951171875,126.8783950805664 L598.5984497070312,127.81352233886719 L598.632568359375,128.46620178222656 L598.7833251953125,128.82498168945312 L599.0515747070312,128.9133758544922 L599.4429931640625,128.7142333984375 L600.001953125,128.2190399169922 L600.7350463867188,127.43377685546875 L601.61181640625,126.42716979980469 L602.5455932617188,125.2816162109375 L603.4893798828125,124.11432647705078 L604.3892211914062,123.0126953125 L605.2117919921875,122.0560531616211 L605.917724609375,121.27588653564453 L606.48974609375,120.70100402832031 L606.9271240234375,120.32649993896484 L607.2659912109375,120.13334655761719 L607.5628662109375,120.07965087890625 L607.8360595703125,120.12232208251953 L608.079345703125,120.20589447021484 L608.2767944335938,120.28506469726562 L608.4188842773438,120.33148956298828 L608.5069580078125,120.33911895751953 L608.5645751953125,120.30603790283203 L608.6036987304688,120.24974060058594 L608.6400756835938,120.18389892578125 L608.6739501953125,120.1139907836914 L608.710693359375,120.04318237304688 L608.74365234375,119.98282623291016 L608.757080078125,119.91356658935547 L608.763671875,119.84495544433594 L608.7719116210938,119.7798843383789 L608.7728881835938,119.72484588623047 L608.774658203125,119.67961120605469 L608.7747802734375,119.64576721191406 L608.7705688476562,119.60151672363281 L608.777099609375,119.5553970336914 L608.8019409179688,119.51127624511719 L608.82958984375,119.47377014160156 L608.8641967773438,119.44107055664062 L608.89697265625,119.41251373291016 L608.9227294921875,119.37699127197266 L608.9327392578125,119.33612060546875 L608.925537109375,119.2852554321289 L608.8992919921875,119.22911834716797 L608.8663330078125,119.1729736328125 L608.8385620117188,119.1346664428711 L608.8203125,119.10789489746094 L608.8027954101562,119.08411407470703 L608.7840576171875,119.04581451416016 L608.7638549804688,118.9969482421875 L608.747314453125,118.9471435546875 L608.7448120117188,118.92286682128906 L608.7550659179688,118.91921997070312 L608.7647705078125,118.92864227294922 L608.7664794921875,118.93038177490234 L608.769775390625,118.93119812011719 L608.7794189453125,118.93146514892578 L608.79150390625,118.93580627441406 L608.8065185546875,118.93610382080078 L608.8199462890625,118.9310531616211 L608.8216552734375,118.91687774658203 L608.8353271484375,118.91160583496094 L608.8602294921875,118.91209411621094 L608.8850708007812,118.91316223144531 L608.9039916992188,118.90474700927734 L608.9192504882812,118.8863754272461 L608.92578125,118.86254119873047 L608.9389038085938,118.83965301513672 L608.9590454101562,118.8145523071289 L608.9771728515625,118.7841796875 L608.980224609375,118.74748229980469 L608.9760131835938,118.71597290039062 L608.9764404296875,118.7009506225586 L608.993896484375,118.70219421386719 L609.0269775390625,118.7119140625 L609.0634765625,118.71312713623047 L609.0914916992188,118.69943237304688 L609.1099853515625,118.67388153076172 L609.1312255859375,118.6469497680664 L609.1624755859375,118.62682342529297 L609.19677734375,118.62086486816406 L609.2315673828125,118.63005065917969 L609.263671875,118.64723205566406 L609.28466796875,118.65885925292969 L609.2913818359375,118.6588134765625 L609.2928466796875,118.64247131347656 L609.2955322265625,118.61454010009766 L609.3094482421875,118.5884780883789 L609.3438720703125,118.56804656982422 L609.395751953125,118.56065368652344 L609.4443359375,118.56631469726562 L609.484619140625,118.5756607055664 L609.5068969726562,118.57588958740234 L609.50341796875,118.56049346923828 L609.4856567382812,118.53093719482422 L609.474853515625,118.51007843017578 L609.4688720703125,118.50666809082031 L609.4732055664062,118.5196762084961 L609.485107421875,118.53504943847656 L609.4976806640625,118.53987884521484 L609.509521484375,118.5234146118164 L609.5260620117188,118.49412536621094 L609.5292358398438,118.45657348632812 L609.522705078125,118.42076110839844 L609.5155639648438,118.39022064208984 L609.5167236328125,118.37025451660156 L609.5320434570312,118.3537826538086 L609.5606689453125,118.33907318115234 L609.5819091796875,118.32035064697266 L609.595703125,118.3035888671875 L609.6031494140625,118.29176330566406 L609.6103515625,118.28363037109375 L609.6240234375,118.26959228515625 L609.643310546875,118.24444580078125 L609.6636962890625,118.21121978759766 L609.6905517578125,118.17990112304688 L609.7238159179688,118.16001892089844 L609.765869140625,118.15044403076172 L609.8101806640625,118.1430435180664 L609.8421630859375,118.13069152832031 L609.8572998046875,118.12126159667969 L609.8566284179688,118.11495971679688 L609.8540649414062,118.1158218383789 L609.8575439453125,118.1195297241211 L609.8726806640625,118.12366485595703 L609.89208984375,118.11588287353516 L609.915283203125,118.09861755371094 L609.9412841796875,118.07661437988281 L609.9777221679688,118.05559539794922 L610.0136108398438,118.03524780273438 L610.0462036132812,118.02112579345703 L610.06005859375,118.00289154052734 L610.058837890625,117.98271942138672 L610.0569458007812,117.96790313720703 L610.060546875,117.959716796875 L610.0670166015625,117.95635223388672 M611.714599609375,118.94782257080078 L612.099853515625,118.64861297607422 L612.6793212890625,118.13610076904297 L613.354736328125,117.44654083251953 L613.9599609375,116.70875549316406 L614.4668579101562,115.99543762207031 L614.8364868164062,115.33916473388672 L615.097900390625,114.77262878417969 L615.22314453125,114.3327407836914 L615.248046875,114.01570129394531 L615.2166137695312,113.83535766601562 L615.150634765625,113.79940032958984 L615.0216064453125,113.91925048828125 L614.8052978515625,114.2518081665039 L614.4187622070312,114.86231231689453 L613.8560791015625,115.78070068359375 L613.13525390625,117.00496673583984 L612.318603515625,118.48641967773438 L611.4745483398438,120.12153625488281 L610.7030639648438,121.79464721679688 L610.0740966796875,123.37825012207031 L609.6600341796875,124.75833129882812 L609.46826171875,125.85067749023438 L609.4949951171875,126.62057495117188 L609.72412109375,127.0406494140625 L610.1782836914062,127.08509826660156 L610.88916015625,126.7099609375 L611.8956298828125,125.90319061279297 L613.1651611328125,124.70134735107422 L614.6298828125,123.21546936035156 L616.1978759765625,121.58876037597656 L617.7739868164062,119.958740234375 L619.2613525390625,118.43832397460938 L620.5744018554688,117.13378143310547 L621.6265869140625,116.12250518798828 L622.36669921875,115.43284606933594 L622.7974853515625,115.05990600585938 L622.944091796875,114.99039459228516 L622.8458251953125,115.24359130859375 L622.506103515625,115.8808822631836 L621.9265747070312,116.93668365478516 L621.1572265625,118.36553955078125 L620.3193359375,120.03822326660156 L619.5596923828125,121.76724243164062 L619.0460205078125,123.369384765625 L618.85693359375,124.71354675292969 L619.003662109375,125.70586395263672 L619.482421875,126.3359375 L620.2786865234375,126.58546447753906 L621.389404296875,126.43094635009766 L622.8336181640625,125.84618377685547 L624.5804443359375,124.83072662353516 L626.5607299804688,123.41456604003906 L628.6923217773438,121.71623992919922 L630.8840942382812,119.83429718017578 L633.0684814453125,117.85454559326172 L635.2115478515625,115.83686065673828 L637.2681884765625,113.82299041748047 L639.19091796875,111.86795043945312 L640.902099609375,110.08108520507812 L642.30419921875,108.58651733398438 L643.315673828125,107.4735336303711 L643.9351806640625,106.76200866699219 L644.1953125,106.42052459716797 L644.1695556640625,106.43558502197266 L643.8787841796875,106.85617065429688 L643.2752685546875,107.7816162109375 L642.3145751953125,109.26624298095703 L641.02490234375,111.23835754394531 L639.5043334960938,113.56237030029297 L637.9229736328125,116.0643081665039 L636.4542236328125,118.57518005371094 L635.2301635742188,120.93933868408203 L634.359375,123.01878356933594 L633.878173828125,124.67115783691406 L633.7501220703125,125.83827209472656 L633.8817749023438,126.50599670410156 L634.1602783203125,126.6970443725586 L634.498046875,126.44569396972656 L634.8433837890625,125.78902435302734 L635.1486206054688,124.78236389160156 L635.330078125,123.54741668701172 L635.320068359375,122.24142456054688 L635.099853515625,121.04688262939453 L634.7320556640625,120.11740112304688 L634.314697265625,119.52461242675781 L633.953125,119.2786865234375 L633.6982421875,119.36460876464844 L633.609619140625,119.74585723876953 L633.771240234375,120.38554382324219 L634.3070068359375,121.18942260742188 L635.3240966796875,122.01493072509766 L636.858642578125,122.68817901611328 L638.866943359375,123.0748062133789 L641.2313232421875,123.08146667480469 L643.7808837890625,122.68399047851562 L646.3274536132812,121.90025329589844 L648.66845703125,120.81239318847656 L650.5928955078125,119.53115844726562 L651.9449462890625,118.2099609375 L652.6409912109375,116.97254943847656 L652.68798828125,115.92766571044922 L652.1533203125,115.1654052734375 L651.127197265625,114.77532958984375 L649.7022705078125,114.84115600585938 L647.9873046875,115.42536163330078 L646.1596069335938,116.50445556640625 L644.46923828125,117.9966812133789 L643.1815795898438,119.75411224365234 L642.51171875,121.60511779785156 L642.592529296875,123.39009857177734 L643.4379272460938,124.96062469482422 L644.9985961914062,126.18498992919922 L647.1517333984375,126.96870422363281 L649.7164306640625,127.25580596923828 L652.4869384765625,127.08283996582031 L655.22412109375,126.46356964111328 L657.64501953125,125.46243286132812 L659.52880859375,124.19132232666016 L660.7103271484375,123.03955078125 L661.254638671875,122.24573516845703 " fill="none" stroke="green" stroke-linecap="round" stroke-width="2" /><path d="M0,0 M383.0342712402344,176.40093994140625 L382.93646240234375,176.5167999267578 L382.7469787597656,176.8284454345703 L382.44970703125,177.45761108398438 L382.0451354980469,178.51377868652344 L381.5347595214844,180.0822296142578 L380.8996276855469,182.16651916503906 L380.1033935546875,184.66102600097656 L379.158935546875,187.46688842773438 L378.0735168457031,190.43846130371094 L376.8701477050781,193.43307495117188 L375.5849609375,196.28895568847656 L374.2394104003906,198.8032989501953 L372.88922119140625,200.77284240722656 L371.6285095214844,202.11061096191406 L370.5583190917969,202.7896270751953 L369.75421142578125,202.81951904296875 L369.24932861328125,202.23231506347656 L369.05279541015625,201.03863525390625 L369.2254943847656,199.29656982421875 L369.81024169921875,197.1265411376953 L370.863525390625,194.71099853515625 L372.37615966796875,192.19139099121094 L374.297607421875,189.7075958251953 L376.5467529296875,187.33428955078125 L379.06475830078125,185.1318817138672 L381.7630920410156,183.13278198242188 L384.55438232421875,181.37728881835938 L387.3094787597656,179.87460327148438 L389.87567138671875,178.64903259277344 L392.10406494140625,177.70458984375 L393.8885498046875,177.04885864257812 L395.17584228515625,176.67860412597656 L395.95556640625,176.6080780029297 L396.2457275390625,176.85198974609375 L396.0813903808594,177.44973754882812 L395.5277404785156,178.41505432128906 L394.6932373046875,179.70187377929688 L393.74969482421875,181.18594360351562 L392.8740539550781,182.68948364257812 L392.2081298828125,184.01622009277344 L391.8592529296875,185.03659057617188 L391.8837585449219,185.66200256347656 L392.3017578125,185.83261108398438 L393.1529846191406,185.52391052246094 L394.42584228515625,184.73851013183594 L396.03668212890625,183.54859924316406 L397.848388671875,182.11524963378906 L399.691650390625,180.62460327148438 L401.3712158203125,179.25450134277344 L402.7421875,178.13555908203125 L403.7194519042969,177.32742309570312 L404.281494140625,176.8415069580078 L404.46453857421875,176.71145629882812 L404.34478759765625,176.96263122558594 L403.9717102050781,177.6509552001953 L403.37225341796875,178.77969360351562 L402.6500549316406,180.26876831054688 L401.9532775878906,181.9248809814453 L401.4374694824219,183.5409698486328 L401.23077392578125,184.90843200683594 L401.3869323730469,185.91099548339844 L401.8909606933594,186.4866180419922 L402.7529602050781,186.62005615234375 L403.9821472167969,186.29571533203125 L405.5437316894531,185.52896118164062 L407.38427734375,184.36459350585938 L409.41143798828125,182.89996337890625 L411.52838134765625,181.26382446289062 L413.643310546875,179.59825134277344 L415.6707458496094,178.03204345703125 L417.5142822265625,176.69825744628906 L419.1239318847656,175.7079620361328 L420.4685363769531,175.1420135498047 L421.5605773925781,175.03857421875 L422.41229248046875,175.38092041015625 L423.0337219238281,176.1216583251953 L423.41070556640625,177.2077178955078 L423.532958984375,178.56275939941406 L423.39398193359375,180.08331298828125 L423.0151672363281,181.66580200195312 L422.4056396484375,183.17599487304688 L421.5990295410156,184.50149536132812 L420.614990234375,185.55572509765625 L419.47784423828125,186.27378845214844 L418.2776794433594,186.6344757080078 L417.1510009765625,186.697998046875 L416.30633544921875,186.6018829345703 L415.82904052734375,186.47817993164062 M415.7647705078125,166.67135620117188 L415.7216796875,166.70484924316406 L415.70025634765625,166.76849365234375 L415.70367431640625,166.8389434814453 L415.7352294921875,166.892822265625 M435.2340087890625,165.0 L435.205810546875,165.21731567382812 L435.0841064453125,165.73968505859375 L434.7820739746094,166.67369079589844 L434.2283935546875,168.02999877929688 L433.39398193359375,169.78594970703125 L432.3018493652344,171.88450622558594 L431.0765380859375,174.23483276367188 L429.86846923828125,176.68589782714844 L428.8162841796875,179.080810546875 L428.033935546875,181.24276733398438 L427.54071044921875,183.0471649169922 L427.31201171875,184.3957061767578 L427.3074645996094,185.24575805664062 L427.45294189453125,185.59814453125 L427.62945556640625,185.62754821777344 L427.7709655761719,185.51882934570312 M425.59649658203125,174.2666015625 L425.6673278808594,174.29901123046875 L426.01318359375,174.40713500976562 L426.7811279296875,174.60548400878906 L428.125244140625,174.85531616210938 L429.97479248046875,175.07693481445312 L432.12982177734375,175.20541381835938 L433.9819030761719,175.2423553466797 L435.1920166015625,175.2267303466797 M460.4796142578125,176.73362731933594 L460.50103759765625,176.52243041992188 L460.46783447265625,176.1696014404297 L460.3016357421875,175.7272186279297 L459.8959045410156,175.30877685546875 L459.2022705078125,174.9960174560547 L458.18804931640625,174.8494110107422 L456.90411376953125,174.9079132080078 L455.4923095703125,175.17886352539062 L454.13818359375,175.6427764892578 L453.0089111328125,176.25753784179688 L452.25762939453125,176.98695373535156 L451.95220947265625,177.80084228515625 L452.1053466796875,178.6833953857422 L452.72900390625,179.61192321777344 L453.78692626953125,180.56591796875 L455.1991882324219,181.5253143310547 L456.85565185546875,182.48890686035156 L458.6027526855469,183.464111328125 L460.25482177734375,184.44276428222656 L461.65142822265625,185.4010772705078 L462.6810607910156,186.31048583984375 L463.270751953125,187.1298828125 L463.3971862792969,187.84323120117188 L463.06561279296875,188.43235778808594 L462.3074035644531,188.8812713623047 L461.1446533203125,189.15243530273438 L459.6683349609375,189.2182159423828 L457.97955322265625,189.0357666015625 L456.24310302734375,188.6256561279297 L454.62127685546875,188.0270538330078 L453.27813720703125,187.32449340820312 L452.3499450683594,186.5052947998047 L451.9294738769531,185.5754852294922 L452.00543212890625,184.52980041503906 L452.33636474609375,183.62124633789062 L452.67779541015625,183.00477600097656 M469.8614501953125,179.23101806640625 L469.8690185546875,179.2744140625 L469.82818603515625,179.4503173828125 L469.67803955078125,179.85107421875 L469.3544006347656,180.53707885742188 L468.8428955078125,181.50579833984375 L468.19287109375,182.72113037109375 L467.5037841796875,184.11471557617188 L466.8924560546875,185.57472229003906 L466.4559326171875,186.97567749023438 L466.2366943359375,188.1880340576172 L466.24578857421875,189.1227569580078 L466.51666259765625,189.6217498779297 L467.03265380859375,189.58868408203125 L467.75970458984375,188.9980926513672 L468.4527587890625,188.21078491210938 L468.9396057128906,187.5435028076172 M473.13623046875,170.6238555908203 L473.09771728515625,170.5380096435547 L473.09136962890625,170.4486083984375 L473.11407470703125,170.3826141357422 L473.1626281738281,170.36700439453125 M482.96710205078125,169.10435485839844 L482.95294189453125,169.20823669433594 L482.8597412109375,169.54322814941406 L482.621337890625,170.2388458251953 L482.1695861816406,171.3572540283203 L481.4779968261719,172.8806915283203 L480.5860900878906,174.75160217285156 L479.58349609375,176.8909149169922 L478.5721435546875,179.18728637695312 L477.6744384765625,181.50738525390625 L476.9730224609375,183.68887329101562 L476.520263671875,185.58853149414062 L476.3973388671875,187.06687927246094 L476.627197265625,188.04713439941406 L477.1536560058594,188.5103759765625 L477.73095703125,188.6084442138672 L478.1648864746094,188.52853393554688 M476.1820983886719,179.97486877441406 L476.1683349609375,179.97682189941406 L476.3975830078125,180.0146026611328 L477.09893798828125,180.09695434570312 L478.4866943359375,180.1972198486328 L480.4765625,180.25880432128906 L482.7912292480469,180.25091552734375 L484.75146484375,180.200927734375 L485.99066162109375,180.14498901367188 M501.75946044921875,181.9108123779297 L501.38177490234375,182.40847778320312 L500.7392578125,183.35279846191406 L499.88446044921875,184.71746826171875 L498.95953369140625,186.28863525390625 L498.05401611328125,187.85418701171875 L497.26971435546875,189.19635009765625 L496.66961669921875,190.19935607910156 L496.3115234375,190.79461669921875 L496.1993408203125,190.95114135742188 L496.3182373046875,190.64385986328125 L496.69140625,189.84524536132812 L497.3380432128906,188.57420349121094 L498.24017333984375,186.99197387695312 L499.357177734375,185.28933715820312 L500.59619140625,183.6507110595703 L501.8773193359375,182.1997833251953 L503.15728759765625,181.001708984375 L504.3930969238281,180.08029174804688 L505.5389404296875,179.4708251953125 L506.56982421875,179.1677703857422 L507.4764404296875,179.13539123535156 L508.2887878417969,179.29388427734375 L509.07098388671875,179.55892944335938 L509.8956604003906,179.8436279296875 L510.7900695800781,180.06488037109375 L511.762939453125,180.1681365966797 L512.7974243164062,180.12269592285156 L513.8377685546875,179.94236755371094 L514.7999877929688,179.6821746826172 L515.6195678710938,179.4168701171875 L516.2078857421875,179.19593811035156 L516.5408935546875,179.06016540527344 L516.6298828125,179.03750610351562 L516.4878540039062,179.19517517089844 L516.1171264648438,179.6135711669922 L515.536865234375,180.35769653320312 L514.7715454101562,181.42616271972656 L513.895751953125,182.76327514648438 L513.0003662109375,184.25791931152344 L512.1915283203125,185.80812072753906 L511.5725402832031,187.31063842773438 L511.2145690917969,188.68014526367188 L511.15216064453125,189.83946228027344 L511.387939453125,190.74002075195312 L511.9036865234375,191.31639099121094 L512.7039184570312,191.54063415527344 L513.799560546875,191.37423706054688 L515.1779174804688,190.8275604248047 L516.7855224609375,189.94212341308594 L518.5416259765625,188.7960205078125 L520.3572998046875,187.46047973632812 L522.1488647460938,186.0243682861328 L523.8489990234375,184.54464721679688 L525.3912963867188,183.13296508789062 L526.6893920898438,181.91241455078125 L527.6686401367188,180.98280334472656 L528.3085327148438,180.39283752441406 L528.61376953125,180.1322784423828 L528.6354370117188,180.14675903320312 L528.4155883789062,180.4254913330078 L527.9573364257812,180.99891662597656 L527.2616577148438,181.8809356689453 L526.4013671875,183.02963256835938 L525.4977416992188,184.34185791015625 L524.7088012695312,185.676025390625 L524.16796875,186.87754821777344 L523.9539794921875,187.8444061279297 L524.0931396484375,188.4916229248047 L524.5958862304688,188.75611877441406 L525.4618530273438,188.60545349121094 L526.654541015625,188.05697631835938 L528.0722045898438,187.14198303222656 L529.5784912109375,185.9523468017578 L531.016845703125,184.5885467529297 L532.240478515625,183.20228576660156 L533.157958984375,181.94735717773438 L533.7518310546875,180.97862243652344 L534.0641479492188,180.33819580078125 L534.1751708984375,180.0160675048828 L534.1473388671875,179.95985412597656 L534.0031127929688,180.204833984375 L533.7186279296875,180.81494140625 L533.2940063476562,181.8847198486328 L532.7772216796875,183.37164306640625 L532.2109985351562,185.18304443359375 L531.609375,187.1875457763672 L530.9649047851562,189.30560302734375 L530.2279663085938,191.44973754882812 L529.3570556640625,193.561767578125 L528.3441772460938,195.5133819580078 L527.1934814453125,197.1825714111328 L525.9447021484375,198.47169494628906 L524.6726684570312,199.33079528808594 L523.4686279296875,199.74403381347656 L522.416748046875,199.7725067138672 L521.5960693359375,199.47911071777344 L521.0667724609375,198.91952514648438 L520.8958129882812,198.12753295898438 L521.1515502929688,197.10325622558594 L521.911376953125,195.8328399658203 L523.22119140625,194.36183166503906 L525.0765380859375,192.7353515625 L527.425048828125,191.00543212890625 L530.1576538085938,189.20729064941406 L533.15185546875,187.35301208496094 L536.2899780273438,185.4150848388672 L539.4298095703125,183.38626098632812 L542.427734375,181.25035095214844 L545.1693115234375,179.0352020263672 L547.541259765625,176.81008911132812 L549.4917602539062,174.68833923339844 L550.9959106445312,172.78079223632812 L552.0218505859375,171.17813110351562 L552.59228515625,169.921142578125 L552.7461547851562,169.02325439453125 L552.5330810546875,168.50363159179688 L552.0189819335938,168.4158935546875 L551.2266845703125,168.83741760253906 L550.15087890625,169.8182830810547 L548.842041015625,171.33908081054688 L547.358154296875,173.30929565429688 L545.794921875,175.5934600830078 L544.253173828125,178.0373992919922 L542.8179321289062,180.48965454101562 L541.5768432617188,182.7631072998047 L540.6107177734375,184.66329956054688 L539.957275390625,186.07191467285156 L539.619384765625,186.937255859375 L539.5851440429688,187.28570556640625 L539.87841796875,187.18898010253906 L540.5675659179688,186.69338989257812 L541.679931640625,185.84336853027344 L543.193603515625,184.77459716796875 L544.990234375,183.6565704345703 L546.8821411132812,182.66407775878906 L548.6664428710938,181.91561889648438 L550.193603515625,181.4581756591797 L551.347900390625,181.28219604492188 L552.101318359375,181.40919494628906 L552.459716796875,181.87498474121094 L552.4570922851562,182.69357299804688 L552.1419067382812,183.80322265625 L551.6397094726562,185.08982849121094 L551.103271484375,186.38748168945312 L550.6989135742188,187.55287170410156 L550.5577392578125,188.48562622070312 L550.7947387695312,189.12635803222656 L551.4539794921875,189.40390014648438 L552.569091796875,189.25259399414062 L554.130126953125,188.6155242919922 L556.0834350585938,187.4910888671875 L558.3304443359375,185.93234252929688 L560.77783203125,184.03521728515625 L563.30419921875,181.89447021484375 L565.8033447265625,179.6053009033203 L568.174072265625,177.27462768554688 L570.323974609375,175.0436553955078 L572.1361694335938,173.08665466308594 L573.52294921875,171.53277587890625 L574.426025390625,170.45770263671875 L574.83740234375,169.89376831054688 L574.78076171875,169.85899353027344 L574.2932739257812,170.38894653320312 L573.3836669921875,171.53717041015625 L572.1135864257812,173.25511169433594 L570.5838012695312,175.40618896484375 L568.9493408203125,177.79586791992188 L567.372314453125,180.20672607421875 L565.9871826171875,182.44390869140625 L564.8680419921875,184.36302185058594 L564.0443725585938,185.8441619873047 L563.4827880859375,186.80905151367188 L563.1068115234375,187.2296600341797 L562.806884765625,187.11587524414062 L562.473388671875,186.52630615234375 L562.021240234375,185.5906982421875 L561.415283203125,184.5110321044922 L560.685546875,183.4991912841797 L559.8978271484375,182.73133850097656 L559.1589965820312,182.29306030273438 L558.58447265625,182.18719482421875 L558.3006591796875,182.37783813476562 L558.447021484375,182.80889892578125 L559.2698974609375,183.34605407714844 L560.84814453125,183.8402862548828 L563.0892944335938,184.1448974609375 L565.2274780273438,184.24725341796875 L566.7261962890625,184.2203826904297 M560.6151123046875,174.44219970703125 L560.6883544921875,174.45068359375 L560.8915405273438,174.4785614013672 L561.1447143554688,174.51475524902344 L561.367919921875,174.54824829101562 M587.2616577148438,183.9406280517578 L587.7398071289062,183.56512451171875 L588.7246704101562,182.8500213623047 L590.2597045898438,181.79197692871094 L592.2289428710938,180.48394775390625 L594.5100708007812,178.95806884765625 L596.97119140625,177.27658081054688 L599.488037109375,175.4944305419922 L601.9447021484375,173.70230102539062 L604.1832275390625,172.0348663330078 L606.0599365234375,170.61541748046875 L607.443603515625,169.5336456298828 L608.2532958984375,168.88473510742188 L608.4498291015625,168.7293243408203 L608.03173828125,169.1265869140625 L607.004638671875,170.13037109375 L605.4479370117188,171.69859313964844 L603.4949340820312,173.70425415039062 L601.3392333984375,175.9897003173828 L599.208740234375,178.36306762695312 L597.2955322265625,180.65838623046875 L595.7208862304688,182.7582244873047 L594.5579833984375,184.55157470703125 L593.8197021484375,185.97654724121094 L593.5394287109375,186.9879150390625 L593.7208862304688,187.56854248046875 L594.295654296875,187.73838806152344 L594.9548950195312,187.6654510498047 L595.4644775390625,187.51084899902344 M593.8468627929688,180.88861083984375 L594.0376586914062,181.02960205078125 L594.589111328125,181.272705078125 L595.6505126953125,181.5457305908203 L597.26416015625,181.7078857421875 L599.3486328125,181.64712524414062 L601.7333984375,181.31170654296875 L604.2579345703125,180.73008728027344 L606.779052734375,179.95364379882812 L609.1671142578125,179.01881408691406 L611.3353271484375,177.95030212402344 L613.201171875,176.7855682373047 L614.6939086914062,175.58853149414062 L615.7921142578125,174.4329071044922 L616.498779296875,173.38394165039062 L616.8433227539062,172.48651123046875 L616.936767578125,171.76870727539062 L616.881103515625,171.26426696777344 L616.730224609375,171.02479553222656 L616.481689453125,171.1077117919922 L616.0621337890625,171.57809448242188 L615.3861083984375,172.46498107910156 L614.47216796875,173.7476043701172 L613.380615234375,175.36158752441406 L612.1990966796875,177.21128845214844 L611.005859375,179.1885528564453 L609.8302001953125,181.17974853515625 L608.7027587890625,183.0298614501953 L607.7042236328125,184.60447692871094 L606.91015625,185.78726196289062 L606.374755859375,186.5436248779297 L606.1004638671875,186.91778564453125 L606.0431518554688,186.9780731201172 L606.184326171875,186.74615478515625 L606.5675659179688,186.24072265625 L607.258056640625,185.44839477539062 L608.2845458984375,184.43826293945312 L609.6163330078125,183.3304901123047 L611.1680908203125,182.2637481689453 L612.82958984375,181.35409545898438 L614.494384765625,180.6873779296875 L616.0513916015625,180.28257751464844 L617.3931884765625,180.14810180664062 L618.44091796875,180.2793426513672 L619.1484985351562,180.67637634277344 L619.50390625,181.35194396972656 L619.51123046875,182.31387329101562 L619.1864013671875,183.5030517578125 L618.6204833984375,184.81307983398438 L617.96240234375,186.10421752929688 L617.4064331054688,187.2548065185547 L617.1563720703125,188.18515014648438 L617.35791015625,188.84860229492188 L618.06640625,189.1883544921875 L619.2861328125,189.1731719970703 L620.9510498046875,188.77444458007812 L622.9382934570312,188.02723693847656 L625.0819091796875,187.0127410888672 L627.1868896484375,185.82965087890625 L629.0695190429688,184.57435607910156 L630.5870361328125,183.35208129882812 L631.669921875,182.23983764648438 L632.3001708984375,181.30349731445312 L632.5181274414062,180.5844268798828 L632.3494262695312,180.09304809570312 L631.8443603515625,179.86160278320312 L631.0146484375,179.94223022460938 L629.8912963867188,180.37916564941406 L628.5372924804688,181.173583984375 L627.106689453125,182.27017211914062 L625.7452392578125,183.5577392578125 L624.6609497070312,184.93710327148438 L623.9959716796875,186.3031463623047 L623.8287963867188,187.5491485595703 L624.1732177734375,188.57681274414062 L625.02099609375,189.2958221435547 L626.2938232421875,189.63070678710938 L627.93896484375,189.5559844970703 L629.8739013671875,189.09146118164062 L631.9740600585938,188.2954559326172 L634.0994873046875,187.27716064453125 L636.1358642578125,186.16702270507812 L637.9530029296875,185.0868377685547 L639.4610595703125,184.14639282226562 L640.60009765625,183.4172821044922 L641.3277587890625,182.9300994873047 L641.6312866210938,182.70529174804688 L641.5563354492188,182.78176879882812 L641.117919921875,183.2059326171875 L640.35986328125,184.0057830810547 L639.347900390625,185.1076202392578 L638.2294311523438,186.33607482910156 L637.1902465820312,187.47512817382812 L636.4085693359375,188.37139892578125 L635.9571533203125,188.93515014648438 L635.8565673828125,189.14443969726562 L636.060546875,188.9811553955078 L636.5643920898438,188.42581176757812 L637.38232421875,187.50550842285156 L638.4589233398438,186.3464813232422 L639.6805419921875,185.1065216064453 L640.9166259765625,183.95526123046875 L642.0428466796875,183.00587463378906 L643.014404296875,182.3274688720703 L643.864013671875,181.94313049316406 L644.6282958984375,181.856689453125 L645.3758544921875,182.02767944335938 L646.1824340820312,182.39532470703125 L647.1353149414062,182.8532257080078 L648.3024291992188,183.3086700439453 L649.7086181640625,183.65802001953125 L651.3096923828125,183.8246307373047 L652.9851684570312,183.74656677246094 L654.5880126953125,183.422607421875 L655.9793701171875,182.87449645996094 L657.0216064453125,182.16375732421875 L657.645751953125,181.3617706298828 L657.8306884765625,180.5615997314453 L657.5673828125,179.8480682373047 L656.8956298828125,179.33265686035156 L655.866943359375,179.1262969970703 L654.529052734375,179.32154846191406 L652.9945068359375,179.9749755859375 L651.4078369140625,181.0706024169922 L649.9556884765625,182.5108642578125 L648.8430786132812,184.1542205810547 L648.2779541015625,185.84226989746094 L648.4008178710938,187.43394470214844 L649.38330078125,188.79824829101562 L651.1787719726562,189.81649780273438 L653.578125,190.41810607910156 L655.7777099609375,190.6682586669922 L657.273193359375,190.6977996826172 " fill="none" stroke="black" stroke-linecap="round" stroke-width="1" /></svg>